<svg xmlns="http://www.w3.org/2000/svg" viewBox="0 0 526.3 682.58"><defs><style>.cls-1{fill:#034853;}.cls-2{fill:#ef3d23;}.cls-3{fill:#f7941d;}.cls-4{fill:#007e80;}.cls-5{fill:#009191;}.cls-6{fill:#d1d3d4;}.cls-7{fill:#f1f2f2;}.cls-8{fill:#00b8bc;}</style></defs><title>happy-fish-logo</title><g id="Layer_2" data-name="Layer 2"><g id="Camada_1" data-name="Camada 1"><path class="cls-1" d="M263.77,338.72s18.39,19,22.73,48.09c0,0-43.84,9.85-76.18-6.6C210.32,380.21,230.65,314.9,263.77,338.72Z"/><path class="cls-1" d="M181.71,420.94s-1.1,57.28,89.9,89.23c0,0,15.37-63.1,108.81-91.41,0,0-26.29,37.21-28.31,58.65s-19.82,48.13-19.82,48.13,17.79,10.11,17.79,38.43,14.56,50.15,18.61,53,5.26,17-8.09,11.33-55.18-29.93-74.1-55c0,0-80.08,11.41-139.09-29.89s3.67-107.23,3.67-107.23Z"/><path class="cls-1" d="M366,632a16.64,16.64,0,0,1-6.39-1.52c-14.07-6-54.93-30-74.23-54.66a216.47,216.47,0,0,1-24.79,1.29c-31.58,0-77.09-5.51-114.62-31.77-15.69-11-24.46-24.69-26.07-40.76-3.52-35.08,28-68.72,29.38-70.13l.3-.31L184.21,417l-.07,4c0,.13-.08,14.08,10.66,31.63,9.78,16,30.75,38.27,75.22,54.4,1.75-5.32,6.87-18.29,19.07-33.46,14.37-17.89,41.77-42.32,90.63-57.12l6.76-2.05-4.08,5.77c-.26.37-25.94,36.93-27.88,57.48-1.75,18.6-14.71,40.53-18.92,47.23,5,3.79,16.91,15.34,16.91,39.1,0,28.16,14.59,48.91,17.57,51s4.61,7.76,3.32,11.84A7.26,7.26,0,0,1,366,632Zm-78.47-61.36.86,1.14c18.36,24.32,59.19,48.32,73.12,54.23a11.89,11.89,0,0,0,4.49,1.14,2.45,2.45,0,0,0,2.73-1.84c.74-2.34-.39-5.64-1.47-6.4-4.74-3.31-19.64-26.15-19.64-55,0-26.44-15.9-35.93-16.58-36.32l-2.24-1.3,1.43-2.15c.17-.27,17.48-26.45,19.42-47,1.59-16.89,17.28-42.53,24.8-54-43.54,14.56-68.33,36.87-81.62,53.4-15,18.68-18.86,34-18.9,34.15l-.63,2.6-2.53-.89c-47.69-16.74-70-40.58-80.35-57.63-8-13.26-10.3-24.47-10.94-30.09l-27,13.39c-3.12,3.41-30.93,34.84-27.79,66,1.47,14.59,9.55,27.12,24,37.25,36.49,25.54,80.95,30.9,111.83,30.9a203.76,203.76,0,0,0,25.52-1.42Z"/><path class="cls-2" d="M210.32,57.06S143.7,82.24,113.36,85s-49.75,4.24-59.15,2.12-12.3,4.25-5.09,13S60,113.79,60,113.79l-30.33,37L39,178.7S11.13,219.35,3.85,252.12,10.14,419.47,91.63,482L83.94,323.1,144,161.72Z"/><path class="cls-3" d="M94,486.48l-3.64-2.79c-44.71-34.31-67.06-88.12-77.93-127.23C.16,312.43-2.21,269.6,1.78,251.66c6.78-30.52,30.7-67,34.91-73.28l-9.44-28,30-36.62c-1.54-2-4.83-6.2-9.79-12.26-4.12-5-5.49-9.66-3.88-13.07.68-1.44,2.53-3.85,7.25-3.85a17.35,17.35,0,0,1,3.83.46,57.19,57.19,0,0,0,12,1c11,0,26.86-1.35,46.47-3.12,29.7-2.67,95.73-27.53,96.4-27.78l5.94-2.25L145.92,162.66,86.08,323.43ZM32,151.23,41.39,179l-.6.88c-.27.4-27.76,40.69-34.87,72.67-7,31.54,5.7,161.61,83.37,224.87L81.8,322.77l60.29-162,.12-.19,62.95-99.35c-17.07,6.23-66.3,23.57-91.61,25.85-19.71,1.78-35.68,3.13-46.85,3.13a61.3,61.3,0,0,1-13-1,13.1,13.1,0,0,0-2.89-.36c-1,0-2.82.19-3.41,1.43s-.13,4.35,3.32,8.56c7.16,8.73,10.87,13.67,10.91,13.72l1,1.33Z"/><path class="cls-1" d="M496.38,142.1s-56,75.65-108.55,94.75S297.63,171,297.63,171s66.74-41.66,100.72-30.74S496.38,142.1,496.38,142.1Z"/><path class="cls-2" d="M386,201.82s68.5,6.86,95.87,24.64c0,0,11.9,19.59-7.21,21.11s-37.31,13.65-57-4.86S377.43,222.52,386,201.82Z"/><path class="cls-4" d="M379.1,195.39c10.67,9.46,23.36,24.57,51.88,37.92s55.21-16.38,64.31-7.28-5.46,35.19-56.42,71.59S301.2,324.06,301.2,324.06C152,365.93,147.41,543.38,147.41,543.38,111.91,519.72-2.75,396,76.42,218.5S310.24,4.88,355.44,11.25,527.14,58.88,523.81,87.7s-42.17,67-42.17,67c-23.06,10.62-44,6.07-89.79-7.28s-67.65,13.95-73.72,30C318.13,177.49,351.15,170.58,379.1,195.39Z"/><path class="cls-1" d="M149.72,547.84l-3.66-2.44c-17-11.33-55.46-48-79.39-105.86a260.07,260.07,0,0,1-20-98.73c-.19-40.48,9.07-82,27.51-123.3,17.29-38.76,39.36-73.34,65.59-102.78a343.5,343.5,0,0,1,76.27-64.19C266.84,19.28,315.71,8.15,344.53,8.15a81,81,0,0,1,11.25.7c21.44,3,63.68,14.28,102.94,29.95C479,46.91,495.15,54.87,506.6,62.47c14.11,9.35,20.52,17.69,19.62,25.51-3.4,29.33-41.27,66.9-42.88,68.49l-.3.3-.39.17a64.33,64.33,0,0,1-27.88,6.11c-15.39,0-32.77-4.28-63.6-13.26a80.92,80.92,0,0,0-22.49-3.47c-24.42,0-39.88,14.42-46.62,28.18,1.85-.17,4.22-.32,7-.32a76.79,76.79,0,0,1,51.66,19.39c2,1.75,4,3.67,6.13,5.71,9.88,9.39,22.16,21.07,45.16,31.83a34.3,34.3,0,0,0,14.82,3.28c10.27,0,20.17-4.26,28.13-7.68,6.08-2.62,11.34-4.87,15.64-4.87a8.73,8.73,0,0,1,6.41,2.47,12,12,0,0,1,3.19,9.76c-1.27,15.35-23.11,39.23-59.92,65.52-32.57,23.26-78.86,28.15-112,28.15-14.5,0-24.61-1-26.91-1.21C225.62,348,188.47,405.58,170.65,450.18c-19.45,48.64-20.81,92.82-20.82,93.26ZM344.53,13C296.2,13,154.22,50.1,78.64,219.49,2.57,390,107,510.36,145.22,538.87a315.22,315.22,0,0,1,20.86-90.35c11.61-29.08,27.21-54,46.37-74.2,24-25.23,53.63-42.92,88.09-52.59l.46-.13.48,0a260.3,260.3,0,0,0,26.83,1.23c26.52,0,76-3.54,109.14-27.24,52.05-37.17,57.49-56.83,57.91-62a7,7,0,0,0-1.79-5.93,3.86,3.86,0,0,0-3-1.05c-3.3,0-8.13,2.07-13.72,4.48-8.37,3.59-18.78,8.07-30.05,8.07A39.61,39.61,0,0,1,430,235.51c-23.71-11.1-36.85-23.59-46.44-32.71-2.12-2-4.12-3.91-6-5.6A72,72,0,0,0,329.06,179a56.9,56.9,0,0,0-10.44.84l-4.32.89,1.56-4.13c6.12-16.22,23.63-35.16,52.82-35.16a85.57,85.57,0,0,1,23.84,3.66c29.75,8.66,47.54,13.06,62.25,13.06a59.64,59.64,0,0,0,25.46-5.48c3.58-3.6,38.12-39,41.16-65.29,1.28-11-22.82-27.49-64.46-44.11-38.5-15.37-81.2-26.75-101.83-29.66A77.49,77.49,0,0,0,344.53,13Z"/><path class="cls-5" d="M304,19.74c21.32-6.7,35.4-6.38,57.28-1.86s42.82,12.7,63.63,20.84l68,26.64c8,3.11,16.61,6.83,20.45,14.47,5.17,10.33-.73,22.53-6.52,32.52-5.52,9.54-11.17,19.24-19.31,26.68s-19.29,12.39-30.15,10.47c-12.45-2.21-21.55-12.51-30.8-21.13C404.7,108,375.22,94.13,345.43,96.76S308.83,121.89,304,151.4c-1.3,7.9-10.11,25.08-21.94,28.15-10,2.59-26.07.32-35.45-4-23.2-10.65-38.28-36.8-35.86-62.22,1.72-17.94,11.16-34.28,22.36-48.4C249.24,44.57,279.17,27.55,304,19.74Z"/><path class="cls-5" d="M282,57.06S311.76,36.13,316.61,21,340.27.63,348.16,6.7,377,28.85,399.73,38.86"/><path class="cls-1" d="M282,57.06l4.68-4.55c3-2.9,7.16-7,11.91-12.14,1.17-1.29,2.4-2.61,3.61-4s2.46-2.88,3.65-4.42,2.38-3.14,3.46-4.81A35.36,35.36,0,0,0,312.15,22c.16-.43.38-.87.5-1.3l.2-.64.28-.85.26-.8c.09-.27.25-.64.37-1s.27-.67.41-1l.43-.9a26.86,26.86,0,0,1,2-3.47c.4-.55.79-1.1,1.23-1.61l.66-.78.69-.75a28.65,28.65,0,0,1,6.39-5A31,31,0,0,1,333.18.81a26.73,26.73,0,0,1,4.11-.7,23.29,23.29,0,0,1,4.26,0,16.94,16.94,0,0,1,8.61,3l.5.36.34.27.68.54L353,5.31l2.65,2.12,5.24,4.11c3.46,2.68,6.82,5.24,10,7.63l2.39,1.77,2.33,1.69c1.51,1.13,3,2.15,4.44,3.19l4.14,2.89L388,31.27c1.19.79,2.32,1.52,3.35,2.22s2,1.28,2.87,1.85c1.73,1.14,3.11,2,4.05,2.59l1.44.93-1.64-.49c-1.06-.34-2.65-.77-4.6-1.49-1-.36-2.08-.74-3.25-1.2s-2.43-1-3.78-1.52l-4.24-1.88c-1.47-.7-3-1.45-4.62-2.24-3.2-1.62-6.63-3.45-10.16-5.53s-7.21-4.36-10.93-6.86c-1.86-1.23-3.72-2.54-5.6-3.87l-2.82-2-1.4-1-.69-.52-.35-.25-.22-.14a7.67,7.67,0,0,0-2-.91,13,13,0,0,0-2.53-.43,15.29,15.29,0,0,0-2.78,0,19.22,19.22,0,0,0-2.85.52,22.32,22.32,0,0,0-10.16,5.65,20.29,20.29,0,0,0-3.46,4.51l-.34.61c-.11.2-.18.39-.28.58l-.14.28c0,.1-.09.17-.14.32l-.3.79-.15.39,0,.05s.06-.19,0-.06l0,.12-.09.23-.38.93c-.24.63-.55,1.17-.82,1.76a37.27,37.27,0,0,1-3.93,6,58.74,58.74,0,0,1-4.34,4.92A96,96,0,0,1,302,44a131.74,131.74,0,0,1-14.2,9.89c-1.78,1.09-3.23,1.87-4.2,2.41S282,57.06,282,57.06Z"/><path class="cls-1" d="M384,320S257.52,303.13,222.94,218.5s-28.21-118.3-28.21-118.3-20,158.34,106.47,223.86C301.2,324.06,349.27,327.75,384,320Z"/><path class="cls-6" d="M333,91.34s25.79-14.26,50.66-4.86c0,0,6.07-37.31-18.8-47.32s-34,15.47-34.59,30.34S333,91.34,333,91.34Z"/><path class="cls-1" d="M382.21,60.12c-2.42-8.6-7.42-17-17.36-21C346,31.57,336.19,44.39,332.3,57.51h0s-1.46,23.63,24.95,26.3h0a62.37,62.37,0,0,1,7-.52C373.88,80.65,379.24,70.17,382.21,60.12Z"/><circle class="cls-2" cx="357.57" cy="57.06" r="12.06" transform="translate(224.37 393.76) rotate(-77.48)"/><circle class="cls-7" cx="358.17" cy="52.03" r="8.19" transform="translate(7.17 140.3) rotate(-22.38)"/><path class="cls-1" d="M323.29,98S337.19,85,360.66,83.46a60.89,60.89,0,0,1,39.07,10.91s-19.41-7.89-38.22-6.07S323.29,98,323.29,98Z"/><path class="cls-8" d="M145.17,179.54l-.32.6c-.23.38-.49,1-.83,1.69a20.81,20.81,0,0,0-.91,2.71,18,18,0,0,0-.61,3.57,20.12,20.12,0,0,0,1.17,8.64c.15.35.29.77.45,1.07s.37.85.55,1.16.36.67.59,1l.31.53.35.52a22.78,22.78,0,0,0,3.29,3.81,24.77,24.77,0,0,0,4,3c.36.23.73.43,1.1.62s.73.39,1.1.57.76.34,1.13.5l.14.06.07,0,0,0h0l.31.11.61.24a29.25,29.25,0,0,0,4.52,1.24,34.12,34.12,0,0,0,4.28.52,41,41,0,0,0,6.61-.13c.81-.1,1.45-.15,1.89-.22l.67-.09-.6.32c-.39.21-1,.49-1.75.81a26.51,26.51,0,0,1-2.86,1,27.39,27.39,0,0,1-8.61,1,25.35,25.35,0,0,1-5.32-.83l-.64-.18-.32-.09-.38-.13c-.45-.16-.91-.3-1.36-.5a20.06,20.06,0,0,1-2.66-1.25,25,25,0,0,1-4.9-3.52,22.7,22.7,0,0,1-3.85-4.68c-.27-.42-.52-.85-.75-1.3s-.45-.9-.66-1.37-.36-.88-.52-1.31-.3-.94-.45-1.41a19.25,19.25,0,0,1-.68-5.43,18.64,18.64,0,0,1,.68-4.79,16.94,16.94,0,0,1,1.5-3.75,16.18,16.18,0,0,1,1.72-2.53,11.66,11.66,0,0,1,1.35-1.4Z"/><path class="cls-8" d="M171.34,212.87l-.11.6c-.07.39-.2,1-.3,1.7-.05.36-.13.75-.17,1.18s-.09.91-.14,1.4-.06,1-.1,1.59,0,1.14,0,1.74a35.79,35.79,0,0,0,.28,3.87,33.18,33.18,0,0,0,.81,4.19,35.23,35.23,0,0,0,1.47,4.26c.32.69.63,1.4,1,2.07.18.34.34.69.55,1l.56.94a32.62,32.62,0,0,0,2.83,3.72,35.24,35.24,0,0,0,3.25,3.12,33.41,33.41,0,0,0,3.46,2.5,34.24,34.24,0,0,0,3.38,1.88l1.6.72,1.47.58,1.33.46c.42.14.81.24,1.16.35.7.22,1.27.34,1.65.44l.6.16-.61.08a13.86,13.86,0,0,1-1.74.16c-.38,0-.8,0-1.26,0s-.95-.05-1.48-.08-1.08-.13-1.68-.2-1.2-.24-1.85-.37-1.31-.35-2-.58-1.38-.48-2.07-.8a25.92,25.92,0,0,1-4.23-2.31,24.78,24.78,0,0,1-2-1.54c-.69-.53-1.31-1.16-2-1.77a29.47,29.47,0,0,1-3.33-4.16l-.72-1.23c-.24-.38-.43-.79-.64-1.2-.43-.79-.73-1.64-1.08-2.46s-.58-1.66-.78-2.51a26.09,26.09,0,0,1-.85-7.31,26.09,26.09,0,0,1,.46-4.25c.15-.65.28-1.26.44-1.84s.34-1.11.52-1.61.38-1,.56-1.38.39-.79.55-1.13a15,15,0,0,1,.87-1.51Z"/><path class="cls-8" d="M198.56,252.8l-.2.59c-.13.37-.35.93-.55,1.63-.1.36-.23.73-.33,1.15s-.21.89-.32,1.37-.19,1-.29,1.56-.15,1.12-.22,1.73a29.45,29.45,0,0,0,.33,8.07,31.1,31.1,0,0,0,1.17,4.32c.29.7.56,1.42.9,2.1.17.34.31.7.51,1l.28.5.14.25.07.12,0,.07v0h0l0-.05a27.65,27.65,0,0,0,2.75,3.74,29.27,29.27,0,0,0,3.26,3.06,27.85,27.85,0,0,0,3.51,2.38,29.91,29.91,0,0,0,3.45,1.72l1.63.62,1.51.48c.48.13.94.23,1.36.36s.82.17,1.18.25c.72.16,1.29.22,1.69.29l.61.1-.6.14a11.93,11.93,0,0,1-1.72.31c-.38,0-.8.11-1.26.13s-1,0-1.49,0-1.1-.06-1.71-.09-1.22-.17-1.88-.26-1.33-.28-2-.48a21.22,21.22,0,0,1-2.12-.72,23.56,23.56,0,0,1-4.33-2.2,21.46,21.46,0,0,1-2.09-1.53,21.94,21.94,0,0,1-2-1.78,26.2,26.2,0,0,1-3.31-4.24l-.7-1.28c-.23-.4-.4-.82-.59-1.24a22.29,22.29,0,0,1-1-2.53,24.46,24.46,0,0,1-.64-2.59,21,21,0,0,1-.36-2.56,23.71,23.71,0,0,1,.09-4.86c.08-.76.23-1.49.37-2.2s.35-1.37.53-2,.43-1.23.66-1.79.47-1.07.71-1.54.5-.91.74-1.3.5-.74.71-1.06a12.29,12.29,0,0,1,1.08-1.36Z"/><path class="cls-8" d="M147.12,206.7l-.53.72c-.37.45-.82,1.18-1.41,2.06a31.48,31.48,0,0,0-1.8,3.37,28.4,28.4,0,0,0-1.65,4.59,27.48,27.48,0,0,0-.65,11.81l.15.79.08.4v0c0-.11,0,0,0,0l0,0,0,.11.06.21c.14.56.27,1.19.44,1.65s.31,1,.53,1.53l.3.78.34.77A27,27,0,0,0,151.44,246l.67.5.7.46c.45.32.94.59,1.41.87s1,.51,1.45.76l.18.09.09.05.05,0s.07,0,0,0h0l.4.17.8.34a26.65,26.65,0,0,0,6,1.63,28.28,28.28,0,0,0,5.66.28,26.24,26.24,0,0,0,4.84-.62,30.31,30.31,0,0,0,3.68-1c1-.39,1.8-.68,2.32-.94l.82-.36-.7.57a20.81,20.81,0,0,1-2.07,1.49c-.48.27-1,.6-1.59.91s-1.25.63-2,.91a25.2,25.2,0,0,1-5,1.5,27.27,27.27,0,0,1-6.27.45,26,26,0,0,1-7-1.3l-.82-.28-.41-.14-.49-.21c-.58-.26-1.18-.49-1.74-.8s-1.15-.58-1.7-.93l-.83-.51-.81-.56a27.86,27.86,0,0,1-9.79-12.2l-.37-.91-.31-.92c-.22-.6-.38-1.26-.55-1.9s-.26-1.21-.38-1.8l-.1-.5-.05-.47c0-.31-.08-.62-.11-.93a26,26,0,0,1,.26-7.09,27.06,27.06,0,0,1,1.8-6A25.06,25.06,0,0,1,142,212a24.09,24.09,0,0,1,2.55-3.08,21.51,21.51,0,0,1,1.9-1.71Z"/><path class="cls-8" d="M165.6,254.94l-.3.6a16.58,16.58,0,0,0-.78,1.7,18,18,0,0,0-.81,2.72,17.16,17.16,0,0,0-.43,3.55A19,19,0,0,0,165,272l.25.52.1.21.16.29c.22.37.43.81.64,1.09a10.43,10.43,0,0,0,.66,1l.35.49.39.48a21.75,21.75,0,0,0,3.58,3.46,24.42,24.42,0,0,0,4.28,2.62c.38.18.76.34,1.14.5s.77.31,1.15.45.77.25,1.16.38l.14.05.08,0h0c-.08,0,0,0,0,0h0l.32.08.63.17a28.72,28.72,0,0,0,4.59.76,34.44,34.44,0,0,0,4.28.07,42.65,42.65,0,0,0,6.52-.82c.78-.18,1.42-.3,1.84-.41l.66-.15-.56.37c-.37.24-.92.59-1.65,1a27.88,27.88,0,0,1-2.72,1.27,26.24,26.24,0,0,1-3.74,1.19,26.75,26.75,0,0,1-4.66.68,24.7,24.7,0,0,1-5.36-.27l-.64-.11-.33-.05-.39-.09c-.46-.12-.93-.21-1.39-.36a19.78,19.78,0,0,1-2.77-1,24.15,24.15,0,0,1-5.19-3,22.14,22.14,0,0,1-4.24-4.3l-.45-.6-.4-.63a15.24,15.24,0,0,1-.77-1.32c-.27-.47-.42-.84-.62-1.25l-.14-.3c-.06-.12,0-.05,0-.08v0l0,0,0-.09-.06-.17-.26-.68a18.31,18.31,0,0,1-1-5.36,18.79,18.79,0,0,1,.42-4.8,16,16,0,0,1,1.32-3.79,14.82,14.82,0,0,1,1.62-2.59,13.93,13.93,0,0,1,1.31-1.43Z"/><path class="cls-8" d="M142.34,243.77l-.44.63a19.36,19.36,0,0,0-1.22,1.79c-.24.39-.52.8-.77,1.28s-.52,1-.81,1.57-.51,1.19-.78,1.84-.47,1.35-.72,2.07-.42,1.49-.57,2.29-.34,1.61-.4,2.48a27.85,27.85,0,0,0-.14,5.35,28.41,28.41,0,0,0,1,5.55,26.18,26.18,0,0,0,2.31,5.26l.83,1.24a11.86,11.86,0,0,0,.86,1.15c.53.71,1.24,1.4,1.88,2.1a29.24,29.24,0,0,0,4.45,3.48,28.11,28.11,0,0,0,4.8,2.37,29.27,29.27,0,0,0,4.67,1.36c.75.12,1.47.25,2.16.34l2,.16c.62,0,1.21,0,1.76,0s1.05-.06,1.51-.08c.93,0,1.64-.18,2.14-.24l.76-.1-.69.33a14.66,14.66,0,0,1-2,.84c-.46.14-1,.33-1.51.47l-1.84.4c-.66.1-1.37.16-2.13.25s-1.55,0-2.39.06-1.7-.09-2.6-.22a23.8,23.8,0,0,1-2.75-.54,26.41,26.41,0,0,1-5.71-2.14l-1.41-.79c-.48-.26-.91-.6-1.37-.9a24.38,24.38,0,0,1-2.63-2.07,25.26,25.26,0,0,1-2.39-2.53,15.75,15.75,0,0,1-1-1.37l-.94-1.4a26.62,26.62,0,0,1-2.65-6.35,25.4,25.4,0,0,1-.59-3.3c-.05-.54-.16-1.09-.16-1.63s0-1.08,0-1.61a26,26,0,0,1,.77-6.05,25.47,25.47,0,0,1,.81-2.68c.31-.86.69-1.65,1-2.41s.77-1.44,1.16-2.09.82-1.22,1.22-1.76.83-1,1.21-1.43.79-.79,1.13-1.13a16.12,16.12,0,0,1,1.67-1.4Z"/><path class="cls-1" d="M212.86,168.86l.82,1.36c.54.89,1.32,2.2,2.31,3.86,2,3.32,4.78,8.09,8.39,13.6,1.81,2.74,3.85,5.65,6.13,8.61a88.8,88.8,0,0,0,7.75,8.76l1.09,1.06.14.13.07.07h0l0,0,.29.26.58.53,1.18,1.06,1.18,1c.39.32.78.65,1.19,1l1.25.93c.82.63,1.7,1.2,2.57,1.79a52.4,52.4,0,0,0,11.29,5.68A42.52,42.52,0,0,0,271.37,221a13.26,13.26,0,0,0,1.54,0h1.53c1-.05,2-.15,3-.23s2-.31,2.93-.5,2-.46,2.9-.75a41.84,41.84,0,0,0,10.32-4.85,55.05,55.05,0,0,0,8.15-6.49c1.16-1.11,2.23-2.26,3.23-3.36s1.93-2.18,2.77-3.21c1.67-2.08,3.08-3.95,4.19-5.53s2-2.83,2.54-3.7l.88-1.32-.67,1.44c-.46.94-1.1,2.32-2,4s-2.09,3.77-3.6,6a61.79,61.79,0,0,1-5.57,7.31c-1.11,1.25-2.34,2.54-3.68,3.79a50.31,50.31,0,0,1-4.41,3.61,41.72,41.72,0,0,1-11,5.82c-.5.19-1,.34-1.58.51s-1,.29-1.55.43c-1.12.26-2.2.44-3.31.66s-2.25.27-3.38.36l-1.71,0a13.94,13.94,0,0,1-1.71,0,44.45,44.45,0,0,1-13.52-2.64,53.5,53.5,0,0,1-12.15-6.26c-.92-.65-1.85-1.27-2.72-2l-1.31-1c-.43-.35-.85-.73-1.28-1.09l-1.25-1.1L237.84,210l-.57-.55-.28-.27-.1-.1-.07-.07-.14-.15c-.37-.39-.74-.77-1.1-1.16a80,80,0,0,1-7.62-9.51,103.45,103.45,0,0,1-5.66-9.23c-1.63-2.92-3-5.66-4.15-8.1s-2.12-4.59-2.91-6.37-1.37-3.18-1.77-4.13Z"/><path class="cls-1" d="M211,239.65l.66,1.13c.42.74,1.06,1.81,1.83,3.2.4.69.81,1.47,1.3,2.29s1,1.7,1.6,2.64,1.16,1.94,1.8,3,1.36,2.13,2.09,3.26,1.47,2.34,2.29,3.53,1.68,2.44,2.55,3.71c.44.64.87,1.29,1.33,1.93s.95,1.28,1.44,1.93c1,1.29,1.92,2.64,2.94,4l3.17,4c1,1.38,2.21,2.68,3.33,4,2.23,2.74,4.68,5.35,7.06,8s4.92,5.19,7.49,7.61c1.27,1.21,2.49,2.47,3.79,3.61L259.4,301c1.25,1.12,2.54,2.15,3.76,3.23l1.82,1.57c.6.51,1.22,1,1.83,1.46l3.51,2.8c1.14.92,2.28,1.73,3.36,2.55l3.1,2.32,2.87,2c.9.64,1.75,1.22,2.52,1.79s1.52,1,2.18,1.45c1.32.87,2.35,1.58,3.06,2.06l1.07.74-1.19-.53c-.77-.35-1.92-.85-3.36-1.53-.72-.35-1.53-.7-2.39-1.13s-1.76-.94-2.74-1.46l-3.13-1.68c-1.08-.61-2.18-1.32-3.36-2s-2.4-1.44-3.63-2.25l-3.78-2.59c-.64-.44-1.31-.88-2-1.36l-2-1.47c-1.32-1-2.67-2-4-3.08-2.62-2.21-5.39-4.44-8-7s-5.19-5.09-7.76-7.7c-2.42-2.75-4.92-5.44-7.13-8.29s-4.34-5.69-6.36-8.46c-1-1.42-1.89-2.84-2.78-4.22l-1.32-2.06c-.43-.68-.82-1.38-1.22-2.05-.8-1.36-1.58-2.67-2.31-4s-1.35-2.57-2-3.78-1.25-2.37-1.78-3.5l-1.45-3.24c-.46-1-.89-2-1.27-2.85s-.66-1.71-.95-2.45c-.57-1.48-1-2.66-1.29-3.46Z"/><path class="cls-1" d="M219.2,272.61l.64.65c.41.43,1,1,1.79,1.85s1.7,1.77,2.76,2.88l1.68,1.77,1.88,1.95c1.29,1.37,2.72,2.82,4.22,4.37s3.11,3.14,4.75,4.82,3.37,3.37,5.14,5.08,3.57,3.43,5.37,5.16,3.64,3.42,5.46,5.07,3.62,3.27,5.36,4.85l2.59,2.28c.84.75,1.68,1.48,2.49,2.18,1.63,1.41,3.16,2.76,4.6,4s2.75,2.35,3.92,3.34,2.17,1.89,3,2.6,1.49,1.29,1.94,1.68l.69.61-.82-.41c-.53-.27-1.31-.65-2.29-1.18s-2.17-1.17-3.5-2l-2.12-1.25c-.74-.45-1.51-.95-2.31-1.46s-1.64-1-2.49-1.62l-2.62-1.8c-1.79-1.25-3.62-2.65-5.52-4.09s-3.8-3-5.68-4.66-3.77-3.35-5.65-5.06-3.66-3.53-5.37-5.36-3.39-3.63-5-5.41c-.78-.9-1.54-1.79-2.27-2.67s-1.46-1.74-2.12-2.61l-1.95-2.51c-.62-.82-1.2-1.62-1.76-2.39s-1.1-1.51-1.59-2.23L223.11,279c-.86-1.29-1.58-2.43-2.15-3.38s-1-1.7-1.31-2.21Z"/><path class="cls-1" d="M225,292.88l.46.46c.29.31.74.75,1.26,1.34l4.43,4.74c.89,1,1.89,2,2.94,3.14s2.17,2.25,3.29,3.46,2.35,2.41,3.58,3.62,2.49,2.46,3.75,3.69,2.54,2.44,3.81,3.61,2.54,2.32,3.76,3.44l1.82,1.62c.58.54,1.17,1.06,1.75,1.55,1.14,1,2.22,2,3.24,2.83l4.9,4.26c.6.5,1.06.93,1.37,1.21l.49.45-.61-.24c-.39-.16-1-.38-1.7-.71s-1.61-.71-2.6-1.21l-1.57-.8c-.55-.29-1.11-.62-1.7-.95s-1.21-.69-1.84-1.07L254,326.1c-1.31-.84-2.64-1.81-4-2.8s-2.76-2.1-4.1-3.29-2.7-2.39-4-3.62-2.59-2.56-3.77-3.91-2.34-2.67-3.42-4c-.53-.67-1-1.33-1.54-2s-1-1.29-1.41-1.94l-1.28-1.88c-.41-.61-.78-1.21-1.14-1.79s-.7-1.13-1-1.67l-.86-1.55c-.54-1-1-1.83-1.3-2.54s-.59-1.29-.77-1.67Z"/><path class="cls-1" d="M79.38,440.5s.07.3.15.81.19,1.23.32,2.1c.26,1.73.59,4,1,6.25s.85,4.49,1.19,6.21c.17.85.31,1.58.41,2.09s.13.81.13.81-.18-.24-.47-.68a8.58,8.58,0,0,1-.49-.81c-.18-.31-.38-.67-.57-1.08a19.75,19.75,0,0,1-1.15-2.83c-.17-.53-.34-1.08-.47-1.66s-.26-1.15-.38-1.74-.18-1.18-.23-1.77-.1-1.16-.12-1.72,0-1.1,0-1.61.06-1,.11-1.44.11-.85.17-1.21.13-.67.19-.92C79.29,440.79,79.38,440.5,79.38,440.5Z"/><path class="cls-1" d="M84.76,434.63s.08.62.18,1.7.23,2.61.35,4.45.27,4,.42,6.27c.08,1.15.19,2.33.3,3.52s.24,2.4.38,3.61.31,2.41.52,3.59.41,2.33.63,3.45.46,2.2.72,3.22.49,2,.7,2.87.46,1.7.64,2.43l.51,1.88c.28,1,.43,1.64.43,1.64s-.29-.54-.77-1.52c-.24-.48-.53-1.07-.82-1.77s-.66-1.46-1-2.34-.71-1.8-1-2.82c-.16-.51-.35-1-.51-1.57s-.3-1.09-.46-1.65-.27-1.15-.42-1.73l-.21-.88c0-.3-.11-.6-.17-.9-.23-1.21-.41-2.44-.59-3.68s-.26-2.47-.33-3.69c-.06-.61-.08-1.22-.1-1.82s0-1.19,0-1.77c0-1.16,0-2.28,0-3.34s.07-2.06.12-3c.09-1.85.22-3.39.33-4.46S84.76,434.63,84.76,434.63Z"/><path class="cls-1" d="M89.59,431.1s.07.87.17,2.4.22,3.71.38,6.33c.09,1.31.18,2.72.28,4.22s.25,3.07.36,4.7.31,3.3.5,5,.41,3.43.63,5.15.49,3.44.8,5.12.6,3.34.91,4.94.64,3.14,1,4.6.66,2.83,1,4.1.62,2.43.88,3.47.5,1.93.7,2.67c.4,1.48.61,2.33.61,2.33s-.35-.8-1-2.22c-.3-.7-.66-1.57-1-2.57S95,479.21,94.59,478c-.21-.63-.43-1.28-.65-1.95s-.42-1.39-.64-2.11c-.44-1.44-.84-3-1.24-4.59-.19-.8-.37-1.62-.56-2.45s-.37-1.67-.52-2.53c-.33-1.7-.6-3.44-.87-5.18s-.43-3.5-.58-5.22c-.09-.87-.16-1.72-.2-2.57s-.1-1.68-.14-2.51c-.07-1.64-.12-3.24-.12-4.75s0-2.93,0-4.25.08-2.52.13-3.59.11-2,.17-2.76C89.51,432,89.59,431.1,89.59,431.1Z"/><path class="cls-1" d="M93.59,428.06s.09,1.07.23,2.95.33,4.55.56,7.76c.13,1.6.26,3.34.41,5.17s.34,3.77.52,5.76.43,4.06.7,6.14.57,4.2.89,6.31.7,4.21,1.12,6.27q.3,1.54.63,3.06c.22,1,.41,2,.64,3,.48,1.94.9,3.83,1.37,5.61s.91,3.46,1.33,5,.84,3,1.18,4.23.67,2.35.94,3.25c.51,1.81.81,2.85.81,2.85l-1.15-2.73c-.36-.87-.81-1.92-1.26-3.15s-1-2.6-1.52-4.14-1.11-3.17-1.64-4.95-1.09-3.65-1.61-5.6c-.27-1-.49-2-.75-3-.12-.51-.24-1-.37-1.53s-.21-1-.32-1.55c-.45-2.08-.82-4.21-1.19-6.34s-.62-4.27-.84-6.38l-.18-1.58c0-.52-.09-1-.13-1.56-.08-1-.19-2.06-.25-3.07-.13-2-.23-4-.28-5.82s-.08-3.6-.09-5.21,0-3.09,0-4.4.06-2.45.09-3.39C93.54,429.14,93.59,428.06,93.59,428.06Z"/><path class="cls-1" d="M97.37,426.44s.1.85.23,2.33l.57,6.13c.13,1.26.27,2.63.41,4.08s.34,3,.5,4.55.39,3.2.59,4.85.44,3.33.67,5,.47,3.35.74,5,.53,3.26.78,4.82.52,3.08.78,4.51.51,2.79.74,4c.48,2.5.87,4.59,1.15,6s.43,2.31.43,2.31-.29-.8-.78-2.21c-.24-.71-.53-1.57-.83-2.56s-.65-2.11-1-3.34-.71-2.57-1.05-4-.7-2.92-1-4.49-.67-3.18-.93-4.84-.55-3.33-.81-5-.44-3.38-.61-5.05-.31-3.32-.45-4.91-.2-3.14-.25-4.6-.09-2.85-.1-4.13,0-2.45,0-3.48,0-2,.09-2.69C97.32,427.29,97.37,426.44,97.37,426.44Z"/><path class="cls-1" d="M101.43,422.4s0,.73.12,2l.29,5.3c.06,1.1.12,2.28.19,3.54s.15,2.57.24,3.93.19,2.78.29,4.21.22,2.88.33,4.33.23,2.91.38,4.34.27,2.83.4,4.19.28,2.68.41,3.93.27,2.42.39,3.51c.24,2.19.44,4,.59,5.28s.2,2,.2,2-.21-.7-.56-1.94c-.17-.62-.38-1.38-.58-2.25s-.46-1.85-.68-2.93-.48-2.25-.7-3.49-.45-2.55-.66-3.92-.41-2.77-.56-4.21-.3-2.9-.44-4.37-.21-2.93-.27-4.38-.1-2.87-.14-4.24,0-2.71,0-4,0-2.45.12-3.55.11-2.11.19-3,.13-1.67.2-2.31C101.33,423.13,101.43,422.4,101.43,422.4Z"/><path class="cls-1" d="M105.52,419s0,.64,0,1.75,0,2.7,0,4.6c0,.95,0,2,0,3.07s0,2.23.07,3.42.07,2.4.11,3.65.09,2.5.14,3.76.1,2.52.19,3.76.14,2.47.21,3.65.16,2.32.23,3.41.16,2.11.23,3.06l.35,4.59c.08,1.11.11,1.75.11,1.75s-.18-.61-.47-1.69c-.14-.54-.31-1.2-.48-2s-.37-1.61-.55-2.55-.37-2-.54-3.05-.33-2.23-.48-3.41-.29-2.42-.37-3.68-.17-2.52-.25-3.8-.08-2.55-.08-3.81,0-2.49.05-3.69.1-2.35.18-3.45.16-2.12.27-3.07.21-1.83.32-2.6.21-1.44.31-2C105.39,419.58,105.52,419,105.52,419Z"/><path class="cls-1" d="M110,414.51s0,.59,0,1.61-.07,2.47-.12,4.21-.11,3.76-.17,5.93c0,1.08,0,2.2-.09,3.34s0,2.29-.06,3.44,0,2.31,0,3.44,0,2.26,0,3.34,0,2.12.06,3.11.06,1.93.09,2.8.09,1.66.12,2.36.09,1.32.12,1.83c.07,1,.1,1.6.1,1.6s-.18-.55-.45-1.54c-.13-.49-.33-1.09-.46-1.79s-.31-1.49-.47-2.35-.28-1.81-.41-2.81-.22-2-.3-3.15-.14-2.22-.17-3.38,0-2.32,0-3.48.07-2.34.13-3.49.14-2.27.24-3.36.21-2.15.34-3.14.27-1.93.4-2.8A53.38,53.38,0,0,1,110,414.51Z"/><path class="cls-1" d="M113.87,409.46s.11,2.1.11,5.24c0,.78,0,1.63,0,2.53s0,1.84,0,2.82,0,2-.06,3,0,2.06-.08,3.1c-.13,4.16-.27,8.32-.37,11.44-.05,1.56-.08,2.87-.11,3.78s-.06,1.45-.06,1.45-.12-.52-.3-1.42c-.09-.45-.21-1-.29-1.64s-.2-1.35-.29-2.13-.16-1.64-.23-2.54-.12-1.85-.15-2.83-.07-2,0-3,0-2.08,0-3.13.09-2.1.14-3.13.14-2,.22-3,.18-1.92.28-2.82.21-1.73.31-2.51C113.38,411.51,113.87,409.46,113.87,409.46Z"/><path class="cls-1" d="M118.62,404.3s0,.47,0,1.28-.08,2-.17,3.35c0,.7-.08,1.44-.13,2.23s-.11,1.63-.16,2.49c-.12,1.71-.25,3.55-.37,5.38-.06.91-.12,1.83-.18,2.73s-.14,1.78-.17,2.64-.11,1.69-.13,2.48-.08,1.53-.11,2.22,0,1.32-.07,1.89,0,1.05,0,1.45c0,.82-.06,1.29-.06,1.29s-.12-.45-.3-1.25c-.08-.4-.21-.88-.29-1.45s-.19-1.19-.28-1.89-.15-1.45-.21-2.25-.09-1.64-.11-2.52,0-1.77,0-2.69.08-1.85.13-2.78.17-1.85.25-2.76.22-1.8.35-2.66.26-1.7.41-2.48.3-1.53.44-2.21c.3-1.36.61-2.49.84-3.27S118.62,404.3,118.62,404.3Z"/><path class="cls-1" d="M122.46,398.94s0,.43,0,1.16,0,1.8,0,3c0,.63,0,1.32-.06,2s0,1.48-.1,2.26-.08,1.59-.14,2.41-.11,1.65-.16,2.48c-.25,3.32-.49,6.64-.68,9.12,0,.63-.08,1.2-.1,1.71s-.06.95,0,1.31c0,.74,0,1.17,0,1.17s-.13-.4-.33-1.12a11.91,11.91,0,0,1-.28-1.32c-.05-.25-.1-.53-.15-.81l-.1-.91c0-.32-.08-.65-.11-1s-.05-.69-.07-1.06c0-.72-.08-1.49-.08-2.28,0-1.58,0-3.27.16-4.95a71.36,71.36,0,0,1,1.25-9.16c.25-1.24.51-2.27.7-3S122.46,398.94,122.46,398.94Z"/><path class="cls-1" d="M127.82,395.4s0,.36,0,1,0,1.52-.13,2.58c-.13,2.13-.37,4.94-.63,7.74-.13,1.39-.26,2.79-.39,4.1,0,.66-.12,1.29-.17,1.89s-.09,1.17-.14,1.7-.06,1-.1,1.44,0,.81-.07,1.12c0,.63-.08,1-.08,1s-.11-.34-.28-.95c-.07-.31-.2-.68-.26-1.11s-.17-.92-.25-1.46-.13-1.12-.17-1.74-.07-1.27-.09-1.94,0-1.37,0-2.08.08-1.42.14-2.13.15-1.43.26-2.13.21-1.38.33-2c.26-1.32.54-2.53.84-3.57s.57-1.89.79-2.48S127.82,395.4,127.82,395.4Z"/><path class="cls-1" d="M133.18,389.94s0,.32,0,.86,0,1.32,0,2.24c0,1.85-.18,4.27-.35,6.69-.05.61-.1,1.21-.14,1.8s-.11,1.18-.15,1.75-.09,1.12-.14,1.63-.09,1-.14,1.47-.08.88-.12,1.25-.07.7-.09,1c-.06.54-.11.86-.11.86s-.11-.3-.25-.83a8.36,8.36,0,0,1-.24-1c-.08-.37-.16-.79-.23-1.25s-.13-1-.19-1.5-.07-1.1-.1-1.68,0-1.18,0-1.8.06-1.22.09-1.84c.1-1.24.25-2.47.45-3.61s.44-2.2.69-3.1.49-1.64.68-2.15S133.18,389.94,133.18,389.94Z"/><path class="cls-1" d="M139.15,385s0,.29,0,.79,0,1.22-.1,2.06c-.1,1.7-.35,3.92-.6,6.14l-.41,3.25c-.08.52-.14,1-.21,1.49s-.14.93-.2,1.35-.13.8-.19,1.14-.1.65-.14.89c-.09.5-.16.78-.16.78s-.09-.27-.21-.77a15.65,15.65,0,0,1-.35-2.06,20.3,20.3,0,0,1-.15-2.93,30,30,0,0,1,.21-3.36,29.37,29.37,0,0,1,1.39-6.12,18.55,18.55,0,0,1,.77-1.94A7.89,7.89,0,0,1,139.15,385Z"/><path class="cls-4" d="M149.46,502.69l.16,2.13c.11,1.36.29,3.28.55,5.58.14,1.15.31,2.39.49,3.69s.41,2.68.65,4.1.55,2.86.86,4.33.66,3,1.06,4.43.82,2.94,1.26,4.37c.23.72.46,1.42.69,2.12s.5,1.38.74,2,.53,1.31.77,2,.52,1.26.78,1.86c.54,1.19,1.05,2.33,1.57,3.36q.38.78.75,1.47c.25.46.48.9.7,1.32l1.21,2.11c.72,1.15,1.11,1.84,1.11,1.84s-.55-.55-1.49-1.55c-.46-.51-1-1.14-1.6-1.89s-1.26-1.6-1.89-2.6-1.33-2.07-2-3.25c-.32-.6-.64-1.22-1-1.85s-.61-1.3-.92-2c-.58-1.35-1.18-2.76-1.68-4.23s-1-3-1.37-4.5-.74-3.06-1-4.59-.48-3-.66-4.49-.27-2.88-.34-4.23-.09-2.61-.07-3.79.06-2.25.12-3.2.15-1.78.23-2.46C149.3,503.45,149.46,502.69,149.46,502.69Z"/><path class="cls-4" d="M154,481.31l0,.94c0,.61.05,1.51.08,2.66s.13,2.52.23,4.11.26,3.37.43,5.32.42,4,.72,6.25.68,4.54,1.08,6.93,1,4.85,1.54,7.33,1.28,5,2,7.44c.4,1.22.78,2.46,1.21,3.67l.66,1.81.33.89.36.89c.49,1.17.94,2.34,1.47,3.47l.76,1.69c.27.55.54,1.09.82,1.63l.81,1.6.86,1.54c.29.5.55,1,.85,1.5s.59,1,.89,1.43l.87,1.39.91,1.3.88,1.27c.28.41.61.79.9,1.17.61.76,1.15,1.52,1.74,2.18l1.65,1.9c.51.6,1.07,1.09,1.53,1.6l1.32,1.35c1.7,1.52,2.66,2.42,2.66,2.42s-1.08-.73-3-2.06c-.89-.73-2-1.58-3.2-2.65l-1.86-1.77a13.06,13.06,0,0,1-1-1l-1-1.08c-.33-.37-.69-.73-1-1.13l-1-1.23-1-1.28-1-1.38-1-1.41c-.32-.49-.63-1-1-1.5l-.95-1.54-.9-1.62-.89-1.66-.84-1.71c-.27-.58-.58-1.15-.83-1.74l-.76-1.8-.38-.9-.35-.92c-.23-.62-.47-1.23-.7-1.85-.45-1.24-.86-2.5-1.28-3.76-.74-2.53-1.44-5.09-2-7.63-.14-.64-.29-1.27-.41-1.9l-.35-1.89c-.24-1.25-.4-2.5-.6-3.72-.36-2.45-.6-4.82-.77-7.08s-.27-4.39-.32-6.36,0-3.78,0-5.38.13-3,.21-4.14C153.82,482.61,154,481.31,154,481.31Z"/><path class="cls-4" d="M158.26,477.51s.05.35.13,1,.24,1.63.42,2.87.43,2.73.71,4.44.65,3.64,1,5.74.88,4.36,1.4,6.74c.27,1.19.54,2.42.85,3.66s.61,2.51.95,3.8.7,2.59,1.06,3.91.78,2.64,1.17,4c.83,2.66,1.7,5.36,2.71,8l.74,2,.78,2c.5,1.31,1.09,2.58,1.65,3.86.27.64.57,1.26.87,1.88l.88,1.86c.6,1.21,1.24,2.4,1.84,3.57s1.32,2.27,1.95,3.37,1.32,2.14,2,3.14,1.36,2,2,2.88l2,2.61,2,2.28c.64.73,1.31,1.35,1.91,2l.88.89.87.78c.56.49,1.07.95,1.53,1.37,1,.79,1.75,1.37,2.27,1.79l.81.64-.88-.53c-.57-.35-1.45-.81-2.49-1.52l-1.69-1.21-1-.7-1-.82c-.66-.58-1.4-1.16-2.11-1.84l-2.21-2.19c-.73-.8-1.48-1.65-2.26-2.52s-1.47-1.86-2.25-2.84-1.45-2.05-2.21-3.12-1.39-2.23-2.11-3.38-1.35-2.38-2-3.61-1.29-2.49-1.87-3.79-1.19-2.59-1.72-3.93c-.27-.66-.54-1.33-.82-2l-.76-2c-1-2.71-1.87-5.45-2.68-8.17s-1.47-5.42-2.06-8.05-1.08-5.18-1.5-7.61c-.21-1.22-.39-2.4-.57-3.55s-.29-2.26-.43-3.33c-.52-4.27-.76-7.84-.86-10.34S158.26,477.51,158.26,477.51Z"/><path class="cls-4" d="M164.93,446.9l0,1.39c0,.9,0,2.23,0,3.91s.08,3.74.17,6.08.26,5,.46,7.86c.11,1.44.21,2.94.37,4.48s.3,3.15.48,4.79.41,3.32.62,5,.47,3.47.76,5.24.56,3.58.92,5.4c.17.91.34,1.82.52,2.74l.57,2.76c.36,1.85.83,3.69,1.25,5.55s1,3.7,1.46,5.54c1,3.68,2.16,7.35,3.47,10.88.64,1.77,1.28,3.52,2,5.22l1,2.55,1.12,2.47c.37.81.72,1.63,1.11,2.42l1.18,2.33c.39.77.74,1.55,1.15,2.29l1.22,2.17c.41.72.79,1.44,1.2,2.12s.83,1.35,1.24,2l1.2,1.94c.4.64.84,1.22,1.24,1.82l1.2,1.73c.39.57.77,1.12,1.18,1.63l2.28,3c.34.47.72.9,1.08,1.31l1,1.19,1.82,2.11,3.68,3.82-4-3.48-2-2-1.13-1.13c-.39-.39-.8-.79-1.18-1.24-.78-.89-1.61-1.84-2.49-2.83-.45-.49-.86-1-1.28-1.58l-1.31-1.7c-.44-.58-.92-1.15-1.35-1.77L185.87,543l-1.35-2c-.44-.68-.85-1.4-1.29-2.11s-.88-1.44-1.32-2.17-.84-1.51-1.26-2.28l-1.27-2.34c-.41-.79-.79-1.62-1.19-2.44L177,527.22c-.37-.85-.73-1.71-1.11-2.57s-.76-1.73-1.1-2.61-.67-1.78-1-2.68c-1.35-3.58-2.51-7.29-3.6-11-.48-1.88-1-3.76-1.43-5.64s-.89-3.76-1.23-5.64c-.19-.94-.37-1.87-.56-2.8s-.31-1.86-.46-2.79c-.32-1.84-.56-3.68-.81-5.47s-.45-3.58-.63-5.32-.33-3.44-.44-5.11c-.26-3.32-.37-6.46-.44-9.36s-.05-5.57,0-7.92.17-4.41.27-6.1.23-3,.32-3.91S164.93,446.9,164.93,446.9Z"/><path class="cls-4" d="M173.28,430.79l0,1.2c0,.79,0,1.94,0,3.4s0,3.23.07,5.26.11,4.33.21,6.82.26,5.2.42,8.06.43,5.86.7,9c.13,1.56.31,3.13.47,4.73s.37,3.2.56,4.83c.41,3.25.85,6.54,1.4,9.82l.39,2.46c.15.81.29,1.63.43,2.44.28,1.63.62,3.25.93,4.85.15.8.32,1.6.5,2.39l.51,2.36c.32,1.57.72,3.1,1.07,4.62.77,3,1.53,5.93,2.33,8.67.37,1.38.84,2.69,1.22,4s.81,2.51,1.21,3.69c.78,2.37,1.61,4.5,2.3,6.41s1.42,3.53,2,4.89l1.35,3.11.47,1.1-.59-1-1.67-3c-.67-1.31-1.48-2.89-2.37-4.73s-1.84-3.94-2.76-6.29-1.91-4.88-2.84-7.61c-.45-1.38-1-2.78-1.38-4.23s-.89-2.93-1.3-4.45c-.81-3-1.63-6.19-2.3-9.43-.34-1.62-.69-3.25-1-4.9s-.61-3.29-.87-4.95c-.53-3.32-.95-6.65-1.34-9.93s-.62-6.52-.82-9.66-.31-6.18-.38-9.06-.06-5.6,0-8.11.15-4.82.25-6.85.25-3.81.38-5.27.26-2.61.36-3.38S173.28,430.79,173.28,430.79Z"/><path class="cls-4" d="M181.62,440.41s0,.51.06,1.48.13,2.38.23,4.18.26,4,.46,6.49.47,5.32.78,8.4c.16,1.53.32,3.13.53,4.78s.4,3.36.63,5.11c.45,3.51,1,7.19,1.61,11s1.33,7.72,2.14,11.68,1.71,8,2.69,12c.51,2,1,4,1.55,5.95s1.09,3.93,1.71,5.85,1.17,3.85,1.83,5.72,1.25,3.73,1.94,5.52c.34.9.67,1.79,1,2.68s.71,1.74,1.05,2.6.68,1.7,1,2.54.73,1.65,1.08,2.45l1.06,2.38c.34.79.75,1.53,1.1,2.28.73,1.49,1.38,3,2.14,4.3s1.43,2.65,2.09,3.89,1.39,2.36,2,3.44,1.29,2,1.87,3l1.62,2.51,3.28,4.62-1-1.13c-.62-.74-1.57-1.8-2.71-3.21l-1.81-2.39c-.65-.87-1.38-1.81-2.07-2.87l-2.24-3.34c-.76-1.2-1.5-2.49-2.31-3.82s-1.55-2.77-2.37-4.23-1.57-3-2.35-4.64c-.39-.8-.8-1.61-1.18-2.44L198,534.57c-.37-.85-.77-1.71-1.13-2.6s-.71-1.78-1.07-2.69c-.74-1.8-1.4-3.66-2.08-5.55s-1.3-3.81-1.93-5.75-1.17-3.93-1.77-5.91-1.08-4-1.61-6c-1-4-1.87-8.08-2.63-12.09l-.57-3c-.16-1-.32-2-.49-3-.34-2-.6-3.93-.89-5.85s-.51-3.82-.73-5.67-.41-3.67-.57-5.44c-.35-3.54-.57-6.9-.75-10s-.27-5.93-.31-8.45,0-4.72,0-6.53.08-3.22.12-4.19Z"/><path class="cls-4" d="M193.75,458.7s0,1.82.27,5c.12,1.58.3,3.49.53,5.68s.58,4.65.95,7.33c.22,1.33.42,2.73.69,4.16.12.72.25,1.45.38,2.19s.28,1.49.42,2.25c.28,1.52.64,3.07,1,4.67s.7,3.2,1.13,4.84c.78,3.28,1.75,6.63,2.75,10,.5,1.7,1.07,3.39,1.61,5.1s1.16,3.4,1.8,5.08c1.23,3.37,2.54,6.73,4,10,.71,1.62,1.41,3.23,2.16,4.79l1.09,2.35,1.15,2.27,1.13,2.24c.38.74.79,1.45,1.17,2.17.77,1.43,1.5,2.84,2.3,4.17s1.53,2.64,2.29,3.88l2.23,3.59c.71,1.15,1.47,2.2,2.14,3.23s1.31,2,2,2.9l1.79,2.51c.55.78,1.05,1.5,1.55,2.12l3,4-.88-1-2.5-2.71c-1.08-1.17-2.28-2.68-3.7-4.38-.73-.84-1.42-1.79-2.18-2.77s-1.56-2-2.34-3.14-1.6-2.29-2.45-3.49-1.62-2.52-2.47-3.83-1.65-2.71-2.5-4.12c-.41-.71-.85-1.42-1.24-2.16l-1.21-2.24c-.4-.76-.8-1.52-1.21-2.28l-1.17-2.35c-.38-.79-.79-1.58-1.17-2.38s-.73-1.63-1.1-2.45c-1.47-3.27-2.82-6.66-4.1-10.08-.63-1.71-1.19-3.45-1.78-5.16s-1.1-3.46-1.59-5.19-1-3.43-1.39-5.15l-.63-2.54-.57-2.52c-.38-1.66-.69-3.32-1-4.93s-.57-3.2-.79-4.75c-.5-3.09-.82-6-1.09-8.75a126.85,126.85,0,0,1-.59-13.16c0-1.59.08-2.84.12-3.68S193.75,458.7,193.75,458.7Z"/><path class="cls-4" d="M201.94,472.66s.23,1.63.76,4.45c.26,1.41.61,3.12,1,5.08s.94,4.14,1.51,6.53,1.27,5,2.05,7.66,1.66,5.53,2.6,8.45,2,5.89,3.15,8.89c.54,1.52,1.17,3,1.76,4.53s1.26,3,1.9,4.5,1.31,3,2,4.46,1.35,2.95,2.1,4.38c1.44,2.87,2.87,5.69,4.38,8.35s3,5.22,4.47,7.61c.76,1.18,1.49,2.34,2.2,3.45l2.13,3.18c.67,1,1.39,2,2,2.88s1.24,1.8,1.86,2.58c1.22,1.58,2.23,3,3.13,4.12l2.08,2.62.74.92-.83-.84-2.35-2.38c-1-1-2.16-2.36-3.5-3.85-.67-.75-1.33-1.59-2.06-2.46s-1.49-1.77-2.22-2.77l-2.34-3.07-2.38-3.39c-1.6-2.35-3.25-4.86-4.81-7.53-.82-1.32-1.57-2.71-2.35-4.1s-1.53-2.83-2.28-4.27-1.44-2.94-2.17-4.42-1.37-3-2.05-4.5-1.28-3.06-1.89-4.59-1.21-3.06-1.74-4.59c-.28-.77-.56-1.53-.83-2.29l-.75-2.28c-.51-1.52-1-3-1.42-4.51-.89-3-1.65-5.86-2.31-8.62s-1.19-5.39-1.66-7.82c-.89-4.87-1.4-9-1.65-11.84-.14-1.44-.19-2.57-.23-3.34S201.94,472.66,201.94,472.66Z"/><path class="cls-4" d="M213.46,479.94l.26,1.08.77,3c.69,2.61,1.72,6.33,3.07,10.74.68,2.21,1.46,4.58,2.29,7.09s1.77,5.13,2.77,7.82,2.12,5.46,3.24,8.26,2.38,5.6,3.69,8.37l1,2.09c.34.69.68,1.37,1,2.06.66,1.38,1.36,2.72,2.06,4.06,1.41,2.67,2.82,5.28,4.28,7.75s2.92,4.84,4.37,7c.7,1.11,1.47,2.14,2.16,3.17s1.4,2,2.08,2.92c1.35,1.87,2.68,3.51,3.83,5s2.25,2.7,3.12,3.73,1.6,1.79,2.09,2.33l.73.83-.83-.73c-.54-.49-1.34-1.18-2.34-2.1s-2.16-2.09-3.47-3.44-2.76-2.94-4.22-4.75c-.75-.89-1.54-1.82-2.29-2.82s-1.59-2-2.35-3.1c-1.57-2.16-3.16-4.49-4.71-7s-3.09-5-4.52-7.76c-.72-1.35-1.45-2.71-2.13-4.1l-1-2.08-1-2.11c-1.31-2.81-2.5-5.68-3.66-8.51s-2.14-5.67-3.07-8.42-1.75-5.45-2.5-8-1.36-5-1.89-7.26-1-4.34-1.35-6.19-.65-3.47-.86-4.81-.34-2.39-.43-3.11S213.46,479.94,213.46,479.94Z"/><path class="cls-4" d="M228,489.34s.14.34.39,1,.63,1.59,1.11,2.79,1.1,2.64,1.77,4.3c.36.82.74,1.7,1.14,2.63s.81,1.9,1.26,2.9.92,2.06,1.4,3.15l1.54,3.35c1,2.31,2.26,4.67,3.42,7.17s2.54,5,3.86,7.57L246,528c.35.64.7,1.28,1,1.93l1.11,1.9,2.17,3.83c.7,1.28,1.51,2.49,2.26,3.73s1.5,2.45,2.23,3.67,1.54,2.35,2.3,3.5,1.51,2.28,2.22,3.39,1.52,2.14,2.25,3.17c1.48,2,2.8,4,4.2,5.74s2.59,3.34,3.68,4.77l3,3.54c.84,1,1.48,1.78,1.92,2.31s.68.82.68.82l-.77-.73c-.5-.48-1.25-1.16-2.18-2.07s-2.08-2-3.36-3.25-2.58-2.84-4.06-4.51-3-3.54-4.57-5.54c-.79-1-1.62-2-2.43-3.09s-1.56-2.21-2.36-3.35-1.62-2.28-2.43-3.47l-2.33-3.66c-.76-1.25-1.59-2.47-2.32-3.76L246,533.07l-1.1-1.94-1-2c-.68-1.31-1.36-2.62-2-3.91s-1.28-2.61-1.9-3.9-1.24-2.56-1.8-3.83c-1.12-2.54-2.23-5-3.15-7.36-.48-1.19-.94-2.33-1.38-3.45s-.81-2.21-1.2-3.25c-.79-2.08-1.39-4-2-5.73s-1-3.22-1.36-4.47-.62-2.23-.79-2.9Z"/><path class="cls-4" d="M243.81,497.83l.4.86,1.16,2.4,1.82,3.71,2.41,4.78c.89,1.75,1.86,3.64,2.9,5.63s2.18,4.07,3.32,6.23,2.44,4.34,3.66,6.6,2.56,4.5,3.93,6.72,2.65,4.49,4.07,6.62c.7,1.08,1.38,2.15,2,3.22s1.38,2.08,2.06,3.1c1.38,2,2.66,4,4,5.8l1.91,2.65c.31.43.61.85.9,1.27l.92,1.18c1.2,1.54,2.29,3,3.26,4.24s1.9,2.29,2.63,3.18c1.46,1.77,2.28,2.8,2.28,2.8s-1-.88-2.63-2.47c-.83-.8-1.87-1.74-3-2.9s-2.32-2.5-3.64-4l-1-1.12c-.32-.4-.66-.8-1-1.21l-2.07-2.56c-.7-.89-1.47-1.77-2.17-2.73s-1.41-1.94-2.14-2.94c-1.48-2-2.91-4.1-4.33-6.27s-2.79-4.42-4.18-6.65-2.61-4.58-3.9-6.82c-.62-1.14-1.21-2.28-1.79-3.41s-1.18-2.23-1.71-3.35c-1.09-2.21-2.13-4.35-3.05-6.42-.46-1-.93-2-1.35-3l-1.19-2.84c-.78-1.81-1.41-3.5-2-5s-1-2.81-1.41-3.9-.65-1.95-.84-2.53Z"/><path class="cls-4" d="M263.83,511.94l3.15,5.84,1.53,2.8c.52,1,1.13,2,1.71,3.11s1.22,2.19,1.86,3.31,1.28,2.27,2,3.38,1.32,2.26,2,3.35,1.32,2.18,2,3.2,1.28,2.05,1.93,3c.32.46.62.92.92,1.36s.58.87.87,1.26c.59.8,1.1,1.54,1.56,2.21l1.25,1.67c.69.93,1.07,1.49,1.07,1.49s-.53-.41-1.42-1.16c-.44-.38-1-.83-1.6-1.39s-1.24-1.21-1.93-1.93-1.41-1.55-2.16-2.42-1.51-1.82-2.26-2.83-1.5-2.07-2.23-3.16-1.42-2.25-2.12-3.39-1.31-2.33-1.94-3.48-1.18-2.33-1.7-3.46-1-2.25-1.43-3.31-.83-2.08-1.16-3-.62-1.82-.88-2.59-.43-1.46-.58-2C264,512.6,263.83,511.94,263.83,511.94Z"/><path class="cls-3" d="M21.65,358.49s.35-1,1-2.8,1.67-4.31,2.93-7.31c.63-1.5,1.3-3.13,2.06-4.83S29.2,340,30,338.2s1.72-3.76,2.63-5.69,1.84-3.88,2.78-5.83,1.91-3.88,2.87-5.79,1.92-3.77,2.86-5.57,1.87-3.53,2.75-5.17,1.73-3.18,2.53-4.59c1.58-2.85,3-5.18,3.95-6.81S52,296.2,52,296.2s-.35,1-1,2.81-1.66,4.31-2.92,7.31c-.63,1.5-1.31,3.12-2.06,4.83s-1.53,3.51-2.37,5.35-1.72,3.76-2.63,5.68-1.85,3.88-2.79,5.83-1.91,3.89-2.87,5.79-1.92,3.77-2.86,5.57-1.87,3.53-2.75,5.17-1.74,3.18-2.53,4.6c-1.58,2.84-3,5.18-4,6.81S21.65,358.49,21.65,358.49Z"/><path class="cls-3" d="M18,332.61s.42-.93,1.2-2.51,1.93-3.83,3.37-6.48c.72-1.33,1.49-2.77,2.35-4.27s1.74-3.1,2.69-4.73,1.94-3.31,3-5,2.07-3.41,3.13-5.12,2.13-3.4,3.21-5.07,2.13-3.29,3.17-4.86,2.08-3.08,3-4.5,1.92-2.77,2.8-4c1.74-2.46,3.26-4.48,4.33-5.88S52,278,52,278s-.41.93-1.2,2.51-1.92,3.83-3.36,6.48c-.72,1.33-1.5,2.77-2.35,4.28s-1.74,3.09-2.69,4.72-1.94,3.31-3,5-2.07,3.4-3.13,5.12-2.13,3.4-3.2,5.06-2.14,3.3-3.18,4.87-2.08,3.07-3,4.5-1.92,2.76-2.8,4c-1.74,2.47-3.25,4.49-4.33,5.89S18,332.61,18,332.61Z"/><path class="cls-3" d="M11.54,309.15s.56-.93,1.59-2.52,2.51-3.84,4.36-6.49c.92-1.33,1.92-2.77,3-4.26s2.21-3.09,3.42-4.71,2.45-3.29,3.73-5,2.61-3.38,3.93-5.08,2.66-3.38,4-5,2.65-3.27,3.94-4.82,2.55-3,3.76-4.45,2.34-2.73,3.42-3.94c2.13-2.43,4-4.41,5.25-5.79S54,254.94,54,254.94s-.56.93-1.59,2.51-2.51,3.84-4.36,6.49c-.92,1.33-1.92,2.77-3,4.27s-2.22,3.09-3.42,4.71-2.45,3.29-3.74,5S35.29,281.28,34,283s-2.67,3.38-4,5-2.65,3.27-3.94,4.82-2.56,3-3.75,4.45-2.35,2.73-3.42,3.94c-2.14,2.43-4,4.41-5.26,5.79S11.54,309.15,11.54,309.15Z"/><path class="cls-3" d="M11.54,286.8s.82-1.08,2.31-2.94,3.64-4.49,6.28-7.59c1.31-1.56,2.74-3.25,4.28-5s3.13-3.62,4.83-5.52,3.44-3.86,5.24-5.84l5.47-6L45.49,248c1.84-1.94,3.66-3.83,5.43-5.66s3.5-3.58,5.14-5.24,3.21-3.21,4.66-4.64c2.9-2.86,5.37-5.2,7.11-6.82s2.76-2.53,2.76-2.53-.83,1.08-2.32,2.94-3.63,4.49-6.27,7.6c-1.31,1.56-2.74,3.24-4.28,5s-3.13,3.63-4.83,5.53-3.44,3.86-5.24,5.83l-5.47,6-5.55,5.91c-1.83,1.94-3.65,3.84-5.42,5.66s-3.51,3.58-5.15,5.23-3.21,3.22-4.66,4.65c-2.9,2.86-5.37,5.2-7.11,6.82S11.54,286.8,11.54,286.8Z"/><path class="cls-3" d="M14,260.61l.72-.79c.47-.5,1.14-1.27,2-2.21,1.77-1.88,4.3-4.57,7.4-7.73,1.55-1.58,3.23-3.3,5-5.08s3.68-3.68,5.67-5.6,4-3.94,6.12-5.94l6.38-6.06,6.44-6c2.12-2,4.26-3.88,6.3-5.74s4-3.63,6-5.31,3.71-3.26,5.38-4.7c3.35-2.9,6.19-5.26,8.18-6.9,1-.83,1.8-1.46,2.34-1.9l.82-.66-.71.78c-.47.51-1.15,1.28-2,2.22-1.77,1.89-4.3,4.57-7.4,7.73-1.55,1.58-3.23,3.3-5,5.08s-3.68,3.69-5.67,5.61-4,3.94-6.12,5.93l-6.38,6.06-6.45,6c-2.12,2-4.26,3.87-6.3,5.74s-4.05,3.63-6,5.31-3.7,3.25-5.38,4.7c-3.34,2.89-6.18,5.26-8.18,6.9-1,.83-1.79,1.46-2.33,1.89Z"/><path class="cls-3" d="M14,246.45l.88-.93c.57-.6,1.4-1.5,2.48-2.62,2.15-2.25,5.24-5.44,9-9.2,1.88-1.89,3.91-3.94,6.09-6.07s4.46-4.4,6.87-6.7,4.85-4.71,7.4-7.11l7.7-7.27,7.76-7.2c2.56-2.39,5.13-4.67,7.58-6.92s4.87-4.37,7.15-6.4,4.44-3.93,6.45-5.68c4-3.51,7.4-6.38,9.78-8.38,1.19-1,2.14-1.77,2.78-2.3l1-.81-.87.93c-.58.6-1.4,1.51-2.49,2.62-2.15,2.25-5.23,5.44-9,9.21-1.88,1.89-3.91,3.93-6.1,6.06s-4.46,4.41-6.86,6.71-4.85,4.71-7.4,7.1l-7.7,7.27L48.69,216c-2.56,2.38-5.12,4.67-7.58,6.91s-4.87,4.38-7.14,6.41-4.45,3.93-6.46,5.68c-4,3.51-7.4,6.38-9.78,8.38-1.18,1-2.14,1.77-2.78,2.3Z"/><path class="cls-3" d="M27.72,207.66l.94-.85c.62-.54,1.51-1.36,2.68-2.36,2.32-2,5.64-4.91,9.68-8.29,2-1.7,4.21-3.53,6.55-5.44s4.78-3.95,7.35-6,5.2-4.22,7.92-6.35l8.23-6.5,8.3-6.41c2.72-2.13,5.46-4.15,8.08-6.15s5.18-3.89,7.6-5.68,4.73-3.49,6.87-5c4.26-3.1,7.86-5.63,10.38-7.39,1.26-.88,2.27-1.55,3-2l1-.71-1,.84c-.62.55-1.51,1.36-2.67,2.37-2.32,2-5.65,4.9-9.69,8.29-2,1.69-4.2,3.53-6.54,5.44s-4.79,3.95-7.36,6-5.2,4.22-7.92,6.35l-8.23,6.49-8.29,6.41c-2.73,2.13-5.47,4.16-8.09,6.15s-5.18,3.89-7.6,5.69-4.74,3.48-6.87,5c-4.26,3.1-7.86,5.63-10.38,7.39-1.26.89-2.27,1.55-2.95,2Z"/><path class="cls-3" d="M41.06,176.48l1-.76c.66-.48,1.61-1.22,2.85-2.12,2.46-1.81,6-4.38,10.28-7.39,2.14-1.51,4.46-3.15,6.94-4.84s5.07-3.51,7.79-5.33,5.5-3.74,8.37-5.63l8.7-5.74L95.75,139c2.88-1.88,5.76-3.65,8.52-5.41s5.45-3.41,8-5,5-3.05,7.22-4.4c4.48-2.72,8.26-4.92,10.91-6.45,1.32-.77,2.37-1.34,3.08-1.75l1.1-.62-1,.76c-.65.49-1.61,1.22-2.84,2.12-2.47,1.81-6,4.38-10.29,7.4-2.14,1.51-4.46,3.14-6.93,4.84s-5.07,3.51-7.79,5.33-5.5,3.74-8.38,5.62l-8.69,5.74-8.76,5.65c-2.88,1.88-5.75,3.65-8.52,5.41s-5.46,3.41-8,5-5,3.05-7.22,4.4c-4.48,2.72-8.25,4.92-10.9,6.45-1.32.77-2.38,1.35-3.09,1.75Z"/><path class="cls-3" d="M48.34,151.4l1.2-.74c.78-.48,1.92-1.21,3.39-2.09,2.92-1.79,7.12-4.32,12.19-7.28,2.53-1.49,5.27-3.1,8.2-4.76s6-3.45,9.19-5.24,6.5-3.68,9.88-5.52l10.23-5.63,10.28-5.54c3.39-1.84,6.76-3.57,10-5.29s6.4-3.34,9.39-4.88,5.83-3,8.45-4.3c5.24-2.65,9.65-4.8,12.73-6.28,1.54-.76,2.77-1.32,3.6-1.71l1.28-.6-1.2.74c-.78.49-1.92,1.21-3.39,2.1-2.92,1.78-7.11,4.31-12.19,7.28-2.53,1.49-5.27,3.09-8.2,4.76s-6,3.45-9.19,5.23-6.49,3.68-9.88,5.52l-10.23,5.63-10.28,5.54c-3.39,1.83-6.76,3.57-10,5.29s-6.4,3.34-9.39,4.88-5.83,3-8.45,4.3c-5.25,2.65-9.65,4.79-12.74,6.28-1.54.75-2.76,1.32-3.59,1.71Z"/><path class="cls-3" d="M55.42,128.35l1.19-.63c.78-.41,1.91-1,3.37-1.77,2.91-1.5,7.08-3.63,12.12-6.1,2.51-1.25,5.24-2.59,8.14-4s5.94-2.87,9.12-4.35,6.45-3,9.8-4.58l10.14-4.65,10.19-4.55c3.35-1.52,6.69-2.93,9.9-4.34s6.33-2.73,9.29-4S144.44,87,147,85.92c5.18-2.15,9.53-3.88,12.58-5.07,1.52-.61,2.73-1,3.55-1.37l1.26-.48-1.19.63c-.78.41-1.91,1-3.37,1.77-2.91,1.5-7.08,3.63-12.11,6.1-2.52,1.25-5.25,2.59-8.15,4s-5.94,2.87-9.12,4.35-6.44,3.06-9.79,4.58l-10.15,4.64-10.19,4.56c-3.35,1.51-6.69,2.93-9.9,4.34s-6.33,2.72-9.29,4-5.76,2.43-8.36,3.5c-5.18,2.15-9.53,3.87-12.58,5.07-1.52.61-2.73,1-3.55,1.37Z"/><path class="cls-3" d="M79.08,101.25s.17,1.4.39,3.87.52,6,.8,10.2c.14,2.11.29,4.4.41,6.82s.28,5,.39,7.62.22,5.37.31,8.14.15,5.59.23,8.41.1,5.64.15,8.41,0,5.51,0,8.16,0,5.2,0,7.62-.06,4.72-.11,6.83c-.08,4.23-.22,7.76-.34,10.23s-.21,3.88-.21,3.88-.17-1.4-.39-3.86-.53-6-.8-10.21c-.14-2.11-.29-4.4-.41-6.82s-.28-5-.39-7.61-.22-5.38-.31-8.15-.15-5.59-.23-8.41-.1-5.64-.14-8.41,0-5.51-.06-8.15,0-5.2.05-7.63.06-4.71.1-6.83c.09-4.23.23-7.76.34-10.23S79.08,101.25,79.08,101.25Z"/><path class="cls-3" d="M90.81,97.2s.17,1.24.41,3.4.55,5.25.84,9c.15,1.86.31,3.87.44,6s.3,4.37.42,6.69.25,4.72.35,7.16.18,4.92.27,7.39.12,5,.18,7.4.08,4.84.1,7.16,0,4.58,0,6.71,0,4.14-.08,6c-.06,3.72-.19,6.82-.29,9s-.2,3.42-.2,3.42-.17-1.24-.4-3.4-.56-5.25-.85-9c-.15-1.86-.31-3.87-.44-6s-.3-4.37-.42-6.69-.25-4.72-.35-7.16-.18-4.92-.27-7.39-.12-5-.18-7.4-.07-4.84-.09-7.16,0-4.58,0-6.71,0-4.14.08-6c.06-3.73.19-6.83.29-9S90.81,97.2,90.81,97.2Z"/><path class="cls-3" d="M103.34,93.56s.2.93.48,2.57.66,4,1,6.79c.19,1.41.4,2.93.57,4.54s.39,3.32.56,5.08.34,3.58.49,5.44.29,3.73.42,5.61.25,3.77.34,5.63.17,3.68.24,5.45.09,3.48.13,5.1,0,3.16,0,4.58c0,2.84,0,5.21-.11,6.87s-.12,2.61-.12,2.61-.2-.93-.48-2.57-.66-4-1-6.79c-.2-1.41-.4-2.93-.57-4.54s-.39-3.32-.56-5.08-.34-3.58-.49-5.44-.29-3.73-.42-5.61-.24-3.77-.33-5.63-.18-3.68-.24-5.45-.1-3.48-.13-5.1,0-3.16,0-4.58c0-2.84,0-5.21.11-6.87S103.34,93.56,103.34,93.56Z"/><path class="cls-3" d="M118.72,89.52s.13.65.3,1.8.38,2.8.58,4.77.35,4.27.46,6.74c.06,1.23.11,2.5.13,3.8s0,2.6,0,3.92,0,2.63,0,3.92-.07,2.57-.12,3.8c-.11,2.47-.28,4.77-.47,6.74s-.4,3.61-.58,4.76-.3,1.81-.3,1.81-.13-.66-.3-1.81S118,127,117.84,125s-.35-4.27-.46-6.74c-.06-1.23-.11-2.5-.13-3.8s0-2.61,0-3.92,0-2.63,0-3.92.07-2.57.13-3.8c.11-2.47.28-4.77.47-6.74s.4-3.62.57-4.77S118.72,89.52,118.72,89.52Z"/><path class="cls-3" d="M131.67,87.9s.13.37.3,1,.38,1.59.57,2.71.36,2.42.47,3.82c.05.7.1,1.42.13,2.16s0,1.48,0,2.22,0,1.49,0,2.23-.07,1.45-.13,2.15c-.11,1.4-.27,2.71-.46,3.82s-.41,2-.58,2.71-.3,1-.3,1-.14-.37-.31-1-.38-1.59-.57-2.71-.36-2.42-.47-3.82c0-.7-.1-1.42-.13-2.15s0-1.48,0-2.23,0-1.49,0-2.22.07-1.46.13-2.16c.11-1.4.27-2.7.46-3.82s.4-2,.58-2.71A9.8,9.8,0,0,1,131.67,87.9Z"/><path class="cls-3" d="M67.35,110.55s.05.4.14,1.16.23,1.87.36,3.29c.3,2.84.7,6.89,1.1,11.75.2,2.44.42,5.07.61,7.86s.42,5.73.6,8.77.4,6.19.55,9.38.32,6.45.48,9.7.26,6.5.39,9.69.19,6.35.29,9.4.14,6,.19,8.79.08,5.44.09,7.88c0,4.88,0,8.95,0,11.8,0,1.42-.06,2.54-.07,3.31s0,1.17,0,1.17l-.14-1.16c-.08-.76-.23-1.88-.37-3.29-.29-2.84-.69-6.89-1.09-11.75-.21-2.44-.42-5.07-.61-7.86s-.43-5.73-.6-8.77-.41-6.19-.55-9.39-.32-6.44-.48-9.69-.26-6.5-.39-9.69-.19-6.35-.28-9.4-.14-6-.19-8.79-.08-5.44-.09-7.88c0-4.88,0-9,0-11.8,0-1.43.06-2.55.08-3.31S67.35,110.55,67.35,110.55Z"/><path class="cls-3" d="M58.86,121.47l.15,1.11c.09.72.25,1.78.41,3.13.34,2.7.79,6.56,1.25,11.19.24,2.32.5,4.83.72,7.49s.51,5.45.72,8.35.49,5.9.68,8.95.41,6.14.62,9.24.34,6.19.51,9.24.28,6.05.42,9,.22,5.72.31,8.38.15,5.19.2,7.52c.11,4.66.12,8.54.12,11.26,0,1.36,0,2.43,0,3.16v1.12s-.05-.39-.15-1.11-.26-1.78-.41-3.13c-.34-2.7-.8-6.56-1.26-11.19-.24-2.32-.49-4.83-.72-7.49s-.5-5.46-.71-8.36-.49-5.89-.68-8.94-.41-6.14-.62-9.24-.34-6.19-.51-9.24-.28-6.06-.42-9-.22-5.72-.31-8.39-.15-5.18-.2-7.51c-.1-4.66-.12-8.54-.12-11.26,0-1.36,0-2.43,0-3.16S58.86,121.47,58.86,121.47Z"/><path class="cls-3" d="M50.37,159.09s.26,1.12.66,3.1.95,4.8,1.53,8.21c.29,1.7.6,3.54.9,5.49s.63,4,.93,6.15.6,4.33.89,6.58.57,4.52.84,6.8.52,4.57.75,6.82.44,4.46.64,6.61.35,4.22.51,6.19.28,3.83.38,5.56c.22,3.44.33,6.32.4,8.34s.06,3.17.06,3.17S58.6,231,58.2,229s-1-4.8-1.53-8.2c-.3-1.7-.61-3.54-.9-5.5s-.64-4-.93-6.14-.61-4.34-.9-6.58-.56-4.53-.83-6.81-.52-4.56-.75-6.81-.45-4.47-.64-6.61-.35-4.23-.5-6.2-.28-3.83-.39-5.55c-.22-3.45-.33-6.32-.4-8.34S50.37,159.09,50.37,159.09Z"/><path class="cls-3" d="M41.06,191.44s.39,1.16,1,3.18,1.46,4.93,2.39,8.43c.47,1.74,1,3.64,1.48,5.65s1,4.12,1.57,6.32,1.07,4.47,1.59,6.79,1,4.67,1.56,7l1.46,7c.48,2.33.92,4.62,1.34,6.84s.8,4.38,1.16,6.42.68,4,1,5.76c.58,3.57,1,6.56,1.27,8.66s.4,3.31.4,3.31-.38-1.16-1-3.18-1.45-4.93-2.39-8.43c-.47-1.74-1-3.64-1.48-5.65s-1.05-4.12-1.57-6.32-1.07-4.47-1.59-6.79-1-4.67-1.55-7l-1.46-7c-.47-2.33-.92-4.62-1.34-6.84s-.79-4.38-1.16-6.42-.68-4-1-5.76c-.58-3.57-1-6.56-1.27-8.66S41.06,191.44,41.06,191.44Z"/><path class="cls-3" d="M27.72,220.57s.45,1.14,1.17,3.17,1.75,4.92,2.89,8.42c.57,1.74,1.19,3.64,1.81,5.65s1.3,4.13,1.95,6.34,1.32,4.47,2,6.79l2,7.05,1.88,7.06c.62,2.33,1.19,4.64,1.75,6.87s1.05,4.39,1.53,6.44.92,4,1.31,5.8c.8,3.59,1.39,6.6,1.79,8.71s.59,3.33.59,3.33-.45-1.14-1.17-3.17-1.75-4.92-2.89-8.42c-.58-1.74-1.2-3.64-1.81-5.65s-1.3-4.13-1.95-6.33-1.33-4.48-2-6.8-1.3-4.69-2-7.05l-1.88-7.06c-.61-2.34-1.19-4.64-1.74-6.87s-1.06-4.39-1.54-6.44-.91-4-1.31-5.8c-.79-3.59-1.39-6.6-1.79-8.71S27.72,220.57,27.72,220.57Z"/><path class="cls-3" d="M21.65,260.61s.51,1,1.34,2.85,2,4.44,3.33,7.6c.67,1.58,1.39,3.29,2.11,5.12s1.52,3.74,2.29,5.73,1.56,4.06,2.35,6.17,1.56,4.25,2.34,6.4,1.53,4.3,2.26,6.43,1.44,4.22,2.11,6.25,1.29,4,1.89,5.88,1.13,3.65,1.62,5.29c1,3.29,1.74,6.05,2.26,8s.77,3.06.77,3.06-.51-1-1.34-2.85-2-4.44-3.33-7.6c-.67-1.58-1.39-3.29-2.12-5.11s-1.51-3.74-2.28-5.74S35.68,304,34.9,301.9s-1.56-4.25-2.34-6.4-1.53-4.3-2.26-6.43-1.44-4.22-2.11-6.25-1.29-4-1.88-5.88-1.13-3.65-1.62-5.29c-1-3.29-1.75-6-2.26-8S21.65,260.61,21.65,260.61Z"/><path class="cls-3" d="M16,292.92s.46.81,1.22,2.26,1.83,3.51,3,6c.6,1.26,1.25,2.62,1.91,4.07s1.37,3,2.06,4.57,1.4,3.25,2.11,4.93,1.4,3.4,2.1,5.12,1.36,3.44,2,5.15,1.28,3.38,1.87,5,1.15,3.22,1.67,4.73,1,2.93,1.42,4.26c.87,2.65,1.53,4.88,2,6.45S38,348,38,348s-.47-.81-1.23-2.26-1.82-3.51-3-6c-.61-1.26-1.26-2.62-1.91-4.07s-1.37-3-2.06-4.57-1.41-3.24-2.11-4.93-1.4-3.4-2.1-5.12-1.36-3.44-2-5.15-1.28-3.38-1.87-5-1.15-3.22-1.67-4.73-1-2.94-1.42-4.26c-.87-2.65-1.53-4.88-2-6.45S16,292.92,16,292.92Z"/><path class="cls-3" d="M16,320.45s.4.66,1,1.84,1.55,2.86,2.56,4.92c2.07,4.1,4.54,9.68,6.8,15.34S30.67,354,32,358.37c.68,2.19,1.18,4,1.51,5.34s.5,2.06.5,2.06-.41-.66-1.06-1.83-1.56-2.87-2.57-4.93c-2.06-4.1-4.53-9.67-6.78-15.34S19.31,332.25,18,327.85c-.67-2.19-1.17-4-1.51-5.34S16,320.45,16,320.45Z"/><path class="cls-4" d="M254.12,342.52s.52.43,1.34,1.27c.41.41.9.93,1.45,1.54s1.17,1.29,1.78,2.09l1,1.22c.33.43.66.88,1,1.35.69.92,1.37,1.93,2.07,3,.35.52.68,1.07,1,1.62s.7,1.11,1,1.69c.63,1.16,1.31,2.33,1.89,3.54s1.18,2.42,1.67,3.66l.75,1.82c.22.61.43,1.22.64,1.82s.41,1.18.59,1.76.32,1.16.47,1.72a29.88,29.88,0,0,1,.75,3.17c.19,1,.34,1.91.47,2.71s.15,1.53.2,2.12c.09,1.17.11,1.84.11,1.84s-.23-.64-.59-1.75c-.18-.56-.39-1.23-.62-2s-.6-1.61-.91-2.54-.73-1.93-1.13-3q-.31-.8-.63-1.62c-.25-.54-.48-1.1-.72-1.66l-.73-1.72-.81-1.74c-.52-1.18-1.1-2.35-1.69-3.53s-1.2-2.33-1.77-3.49-1.22-2.25-1.8-3.34-1.17-2.13-1.75-3.1l-1.61-2.76-1.39-2.33-1.09-1.8Z"/><path class="cls-4" d="M249.19,347.07a13.71,13.71,0,0,1,1.17,1c.34.34.79.73,1.24,1.23s1,1.06,1.5,1.71,1.09,1.35,1.65,2.13,1.13,1.6,1.65,2.5,1.08,1.83,1.59,2.8.95,2,1.43,3,.83,2.06,1.22,3.08.67,2.07,1,3.06.49,2,.71,2.91.32,1.83.46,2.65.25,1.56.28,2.24.08,1.26.11,1.75c0,1,0,1.52,0,1.52s-.21-.52-.52-1.44c-.15-.45-.34-1-.54-1.64s-.48-1.33-.72-2.1c-.14-.39-.27-.79-.42-1.2s-.28-.85-.45-1.28l-1-2.74c-.37-.94-.74-1.91-1.13-2.89s-.8-2-1.24-2.95-.85-2-1.32-2.92l-.67-1.42c-.23-.47-.46-.92-.68-1.38-.44-.91-.91-1.76-1.33-2.59s-.84-1.59-1.24-2.3l-1.1-1.93-.87-1.48Z"/><path class="cls-4" d="M243.81,352.22a11,11,0,0,1,1,.77,19.14,19.14,0,0,1,2.34,2.39c.42.54.92,1.11,1.35,1.78l.68,1,.65,1.1c.22.37.43.76.62,1.16s.41.8.6,1.21c.38.83.73,1.68,1.06,2.54s.61,1.74.84,2.62.46,1.74.63,2.58.29,1.67.4,2.45.14,1.53.19,2.21a15.52,15.52,0,0,1,.07,1.87c0,.56,0,1,0,1.45,0,.8-.09,1.26-.09,1.26s-.16-.44-.39-1.2c-.12-.38-.26-.85-.4-1.38s-.33-1.12-.52-1.76-.39-1.34-.6-2.07-.48-1.5-.71-2.29-.54-1.6-.79-2.43-.58-1.64-.87-2.47l-.93-2.44c-.35-.79-.64-1.6-1-2.34l-.49-1.11c-.17-.36-.33-.72-.5-1.06-.31-.69-.64-1.32-.93-1.93s-.58-1.14-.85-1.61-.5-.89-.7-1.23Z"/><path class="cls-4" d="M238.35,356.77s.33.24.86.72c.25.25.57.54.9.91s.7.79,1.07,1.27.74,1,1.13,1.61.76,1.22,1.09,1.91a19.75,19.75,0,0,1,1,2.13,23.1,23.1,0,0,1,.82,2.29c.26.78.41,1.58.6,2.36.1.39.15.78.21,1.17s.11.77.16,1.15c.1.76.11,1.5.14,2.19a15.82,15.82,0,0,1,0,2c-.05.6-.07,1.16-.16,1.65s-.17.91-.23,1.25c-.14.7-.25,1.09-.25,1.09s-.11-.4-.24-1.09c-.06-.35-.14-.76-.21-1.24s-.22-1-.32-1.57-.2-1.2-.36-1.85-.27-1.33-.45-2-.34-1.43-.54-2.15-.38-1.47-.63-2.19-.44-1.47-.7-2.17l-.36-1.06c-.13-.35-.26-.69-.38-1-.23-.68-.52-1.32-.74-1.94s-.48-1.21-.73-1.74l-.63-1.47c-.2-.44-.38-.82-.52-1.14Z"/><path class="cls-4" d="M231.07,362.84a3.61,3.61,0,0,1,.78.21,6.81,6.81,0,0,1,.84.4,8.53,8.53,0,0,1,1,.68l.52.46c.18.16.34.35.52.54a9.84,9.84,0,0,1,1,1.26c.15.24.29.48.43.73a5.62,5.62,0,0,1,.4.77,12.11,12.11,0,0,1,.64,1.64l.25.84c.07.28.11.57.17.85a10.81,10.81,0,0,1,.22,1.66c0,.54.07,1.06,0,1.55s-.07,1-.11,1.39a7.55,7.55,0,0,1-.2,1.16c-.06.34-.15.63-.21.88-.13.48-.24.76-.24.76s-.1-.28-.24-.76c-.07-.24-.16-.53-.23-.86s-.17-.7-.28-1.1-.21-.83-.31-1.28-.25-.92-.35-1.4c-.07-.24-.11-.49-.18-.73s-.15-.49-.21-.74l-.21-.75-.23-.74c-.13-.5-.33-1-.5-1.45s-.38-.92-.54-1.38-.37-.88-.6-1.26-.4-.76-.6-1.11-.39-.65-.58-.92-.35-.51-.5-.7-.27-.35-.36-.44Z"/><path class="cls-4" d="M225,368.6a1.79,1.79,0,0,1,.47.06,3.62,3.62,0,0,1,1.13.5,4.87,4.87,0,0,1,.64.52,4.46,4.46,0,0,1,.59.69,5.66,5.66,0,0,1,.49.83,7.41,7.41,0,0,1,.35.93,5.4,5.4,0,0,1,.18,1,4.9,4.9,0,0,1,0,.93q0,.47-.09.87a6.92,6.92,0,0,1-.21.76,3.1,3.1,0,0,1-.25.61c-.09.18-.19.33-.26.46a2.52,2.52,0,0,1-.27.38,3.28,3.28,0,0,1-.21-.42c-.06-.13-.13-.29-.2-.47s-.13-.37-.21-.58-.15-.43-.22-.66-.16-.47-.22-.71-.16-.48-.21-.74-.15-.48-.21-.73-.15-.49-.2-.73-.13-.48-.21-.71-.13-.46-.2-.67-.14-.43-.2-.63c-.15-.42-.27-.77-.35-1Z"/><path class="cls-4" d="M106.23,251.51s-39.58,49.14-59.6,104.35S17.2,456,28.12,463.56c10.08,7,102.23-45.2,151.68-123.17"/><path class="cls-1" d="M106.23,251.51s-1,1.34-2.87,3.92c-.94,1.28-2,2.89-3.38,4.76l-2.09,3.06c-.75,1.07-1.54,2.23-2.36,3.46C92.2,271.6,88.34,277.65,84,284.63l-3.31,5.44c-1.13,1.86-2.23,3.83-3.4,5.81l-1.76,3L73.77,302c-1.17,2.12-2.4,4.27-3.6,6.5s-2.37,4.52-3.6,6.84l-.91,1.76-.89,1.79L63,322.57l-1.82,3.69-1.76,3.8c-.58,1.27-1.17,2.56-1.77,3.85s-1.2,2.6-1.74,3.94q-1.68,4-3.39,8.1c-1.07,2.76-2.1,5.57-3.17,8.41-.26.71-.53,1.42-.8,2.13s-.5,1.45-.76,2.17c-.5,1.46-1,2.91-1.52,4.38-1,2.93-2,5.9-3,8.9-4,12-7.73,24.51-11,37.33-1.62,6.41-3.1,12.91-4.26,19.47-.58,3.27-1.08,6.56-1.44,9.86a86,86,0,0,0-.6,9.83,32,32,0,0,0,1.12,9.29,8.57,8.57,0,0,0,1.87,3.4,3.74,3.74,0,0,0,.31.27l.15.12.08.07c-.42-.26,0,0-.1-.07l.28.15.14.08,0,0v0s0,0,.06,0l.37.06.46,0c.29,0,.67,0,1,0a25.85,25.85,0,0,0,4.49-.93c1.52-.45,3-1,4.57-1.56,3-1.17,6-2.51,9-3.94a274.45,274.45,0,0,0,33.29-19.76c5.21-3.56,10.21-7.22,15.06-10.87s9.51-7.34,14-11c8.9-7.39,17-14.74,24.26-21.79,3.62-3.53,7-7,10.18-10.33s6.13-6.56,8.84-9.66c5.43-6.17,10-11.74,13.55-16.42S175.23,347,177,344.4l2.76-4s-.88,1.45-2.54,4.15-4.17,6.63-7.58,11.48-7.67,10.66-12.91,17.05-11.37,13.45-18.46,20.75Q133,399.31,127,405t-12.62,11.41a364.24,364.24,0,0,1-28.92,22.65c-5.22,3.67-10.62,7.26-16.22,10.72s-11.39,6.76-17.45,9.74c-3,1.49-6.14,2.89-9.35,4.15a42.29,42.29,0,0,1-10.32,2.82,15.17,15.17,0,0,1-1.53.06l-.81,0-.87-.13a3.17,3.17,0,0,1-.55-.14l-.6-.2-.28-.12-.14-.07-.28-.15a2,2,0,0,1-.37-.22l-.17-.13-.35-.27c-.23-.18-.42-.38-.63-.57a13.12,13.12,0,0,1-3.09-5.32,36.18,36.18,0,0,1-1.39-10.76,89.33,89.33,0,0,1,.67-10.4c.39-3.42.92-6.8,1.53-10.15,1.22-6.71,2.74-13.3,4.41-19.79s3.52-12.86,5.47-19.12,4-12.4,6-18.41q1.56-4.51,3.14-8.92l1.6-4.38.8-2.16.86-2.15c1.14-2.86,2.25-5.69,3.39-8.47s2.42-5.45,3.6-8.12c4.9-10.62,10.06-20.38,15.15-29.2s10.08-16.69,14.68-23.55,8.77-12.73,12.32-17.47,6.41-8.41,8.4-10.89S106.23,251.51,106.23,251.51Z"/><path class="cls-5" d="M38.41,455.52c21.64-67.7,65.91-114.27,129.33-146.37,6.64,16.73,2.53,33.94-6.14,49.72s-22.17,28.3-35.79,40.07C96.9,423.92,71.67,436.73,38.41,455.52Z"/><path class="cls-8" d="M36.42,456.68l1.66-1.07c1.08-.68,2.66-1.71,4.7-3l3.36-2.11L50.05,448c2.79-1.82,6-3.83,9.34-6.13l5.31-3.56,5.6-3.9c3.88-2.62,7.8-5.64,12-8.59,4-3.1,8.27-6.26,12.43-9.64s8.34-6.86,12.49-10.37l6.11-5.39c2-1.77,4-3.66,5.94-5.48,3.94-3.63,7.68-7.34,11.33-10.91,1.78-1.83,3.52-3.64,5.25-5.39s3.38-3.49,5-5.2l4.67-5,4.28-4.73c2.77-3,5.22-5.87,7.42-8.37l3.08-3.5,2.57-3c1.55-1.83,2.79-3.24,3.63-4.22l1.3-1.48-1.11,1.63c-.73,1.06-1.78,2.62-3.15,4.59-.69,1-1.45,2.07-2.27,3.26s-1.79,2.42-2.79,3.76l-3.17,4.27c-1.11,1.52-2.38,3-3.65,4.65l-4,5c-1.41,1.71-2.92,3.44-4.45,5.24-3,3.63-6.42,7.27-9.9,11.07l-5.47,5.64c-.93.95-1.84,1.92-2.8,2.86l-2.93,2.79c-3.87,3.79-8,7.42-12.09,11.1-4.24,3.52-8.43,7.09-12.74,10.37L94,421.86c-1.06.82-2.16,1.58-3.23,2.37l-6.37,4.59c-4.26,2.91-8.36,5.73-12.39,8.2-2,1.25-3.92,2.5-5.82,3.65l-5.55,3.24c-1.79,1-3.46,2.06-5.13,2.93l-4.69,2.54c-1.47.79-2.84,1.54-4.12,2.21l-3.55,1.77c-2.14,1.08-3.84,1.9-5,2.47Z"/><path class="cls-8" d="M46.07,442.69l1.41-1.11c.94-.71,2.29-1.77,4-3.08.86-.66,1.84-1.38,2.88-2.19l3.35-2.63,3.81-3,4.19-3.35c1.45-1.18,3-2.37,4.53-3.65l4.81-4c.82-.68,1.66-1.36,2.5-2.07l2.52-2.17,5.22-4.45,5.32-4.7c1.8-1.57,3.56-3.25,5.38-4.88,3.66-3.24,7.22-6.71,10.83-10.12s7.14-6.9,10.53-10.42l2.56-2.61c.86-.85,1.69-1.72,2.52-2.59l4.9-5.13c1.6-1.69,3.11-3.41,4.65-5l2.27-2.44c.74-.81,1.45-1.62,2.16-2.42,1.43-1.59,2.81-3.15,4.15-4.65s2.6-3,3.83-4.38l3.51-4.06c1.09-1.3,2.14-2.53,3.11-3.7s1.89-2.25,2.75-3.24,1.61-1.95,2.3-2.79c1.38-1.7,2.5-3,3.24-3.91l1.16-1.37-1,1.51c-.64,1-1.55,2.44-2.76,4.27-.6.91-1.25,1.94-2,3s-1.58,2.25-2.45,3.5-1.81,2.57-2.79,4-2.1,2.81-3.23,4.32-2.28,3.07-3.53,4.67l-3.93,4.89c-.67.84-1.35,1.69-2.05,2.54l-2.16,2.57q-2.19,2.6-4.51,5.25c-3.16,3.47-6.33,7.16-9.81,10.66s-7,7.09-10.53,10.63-7.31,6.87-11,10.11-7.44,6.36-11,9.38c-1.82,1.48-3.63,2.92-5.42,4.3l-2.65,2.06c-.87.68-1.76,1.32-2.62,2L72,426c-1.64,1.19-3.26,2.28-4.8,3.35s-3,2.11-4.44,3.06L58.68,435l-3.6,2.31c-1.11.7-2.16,1.31-3.09,1.87-1.87,1.14-3.36,2-4.37,2.59Z"/><path class="cls-8" d="M57.2,425l1-1c.67-.64,1.63-1.61,2.89-2.8s2.76-2.65,4.53-4.29l5.89-5.54c2.17-2,4.48-4.23,7-6.52l7.74-7.31,4.08-3.86,4.14-4c1.42-1.33,2.78-2.72,4.19-4.08s2.82-2.73,4.19-4.13l4.17-4.16,4.08-4.17c1.36-1.38,2.67-2.78,4-4.15s2.62-2.71,3.86-4.07c2.49-2.71,5-5.29,7.19-7.82l3.28-3.67,3-3.46c2-2.21,3.69-4.3,5.26-6.12l2.19-2.56,1.82-2.21c1.09-1.33,2-2.36,2.58-3.08l.93-1.08-.73,1.22c-.49.8-1.18,2-2.1,3.44l-1.52,2.44c-.56.88-1.21,1.81-1.88,2.81-1.35,2-2.85,4.28-4.64,6.66l-2.75,3.74c-1,1.29-2,2.57-3.06,3.91s-2.12,2.73-3.28,4.1-2.33,2.77-3.52,4.2-2.48,2.81-3.75,4.25-2.56,2.88-3.91,4.29-2.7,2.84-4.06,4.28l-4.18,4.22c-1.4,1.41-2.84,2.77-4.26,4.14s-2.85,2.73-4.29,4.05L93,396.63l-4.25,3.73c-2.79,2.46-5.57,4.73-8.18,6.9s-5.14,4.18-7.48,6l-3.36,2.61-3.07,2.31c-1.93,1.46-3.63,2.7-5,3.71s-2.52,1.8-3.27,2.34Z"/><path class="cls-8" d="M70.68,400.11l.7-.79c.47-.51,1.13-1.28,2-2.21l7.2-7.79,4.8-5.19,5.32-5.81,5.66-6.23c.48-.53,1-1.07,1.45-1.6l1.44-1.62c1-1.08,1.95-2.16,2.9-3.25l5.76-6.52,5.54-6.33c3.58-4.14,6.93-8,9.8-11.3l3.93-4.52,3.05-3.47c.85-1,1.54-1.71,2-2.22l.72-.78-.52.92c-.35.59-.85,1.48-1.51,2.58s-1.46,2.44-2.44,3.94L127,340.33c-.54.85-1.15,1.71-1.77,2.62l-1.93,2.85c-.68,1-1.41,2-2.15,3-1.46,2.06-3.06,4.19-4.74,6.38-.84,1.09-1.72,2.18-2.6,3.29-.45.55-.89,1.11-1.34,1.67l-1.38,1.66c-1.83,2.24-3.78,4.45-5.71,6.66s-3.94,4.37-6,6.44-4,4.12-6,6.05-3.92,3.74-5.79,5.44c-.94.85-1.84,1.68-2.74,2.46s-1.77,1.52-2.61,2.24-1.64,1.4-2.42,2l-2.23,1.78C76.23,396,75,397,74,397.73s-1.85,1.36-2.41,1.77Z"/><path class="cls-8" d="M60,324.94l-.06-1.21c0-.78-.08-1.94-.08-3.4s0-3.25,0-5.29.13-4.34.29-6.85c.08-1.26.17-2.56.26-3.92s.23-2.74.37-4.18c.28-2.86.61-5.89,1-9s.94-6.33,1.54-9.58,1.28-6.55,2.05-9.82S67.05,265.16,68,262s2-6.28,3-9.26c.57-1.47,1.11-2.93,1.68-4.34s1.18-2.77,1.76-4.1l1.78-3.83,1.84-3.5c1.23-2.22,2.4-4.22,3.55-5.92s2.2-3.15,3.06-4.34c.43-.6.87-1.09,1.24-1.53s.68-.81.93-1.11l.79-.91-.59,1.05c-.38.69-1,1.67-1.66,3s-1.51,2.84-2.35,4.68-1.78,3.91-2.77,6.17l-1.43,3.59-1.45,3.87c-.46,1.34-.94,2.72-1.42,4.13s-.92,2.86-1.39,4.34l-1.34,4.51c-.22.77-.43,1.54-.65,2.32s-.44,1.55-.64,2.34c-.83,3.14-1.67,6.34-2.4,9.56-.4,1.61-.76,3.22-1.11,4.83s-.7,3.22-1,4.81-.66,3.18-1,4.75-.6,3.12-.9,4.64c-.56,3.06-1.14,6-1.62,8.83S63,306,62.56,308.46s-.76,4.72-1.09,6.73-.59,3.76-.81,5.2Z"/><path class="cls-8" d="M67.35,312.59s-.09-1.67,0-4.59c0-1.46.06-3.24.19-5.27.07-1,.14-2.1.22-3.24s.2-2.33.33-3.58c.25-2.49.58-5.19,1-8s.94-5.83,1.59-8.91c.16-.76.32-1.54.49-2.32l.54-2.35c.36-1.57.77-3.16,1.2-4.75s.88-3.2,1.35-4.8,1-3.2,1.52-4.79c1.09-3.18,2.23-6.34,3.52-9.39.31-.77.63-1.53.94-2.28s.68-1.49,1-2.23.66-1.48,1-2.2l1.07-2.13c.69-1.42,1.42-2.78,2.17-4.11s1.5-2.6,2.25-3.84c.37-.61.73-1.23,1.11-1.82s.75-1.17,1.14-1.73l1.12-1.67c.37-.54.76-1.05,1.13-1.56.76-1,1.43-2,2.16-2.89l2.07-2.52c1.32-1.56,2.57-2.84,3.55-3.92s1.89-1.81,2.45-2.35l.87-.82-.69,1c-.46.63-1.11,1.57-2,2.73l-1.33,2c-.47.74-1,1.48-1.56,2.35s-1.1,1.76-1.69,2.72-1.18,2-1.8,3.05c-.31.53-.64,1.07-1,1.63s-.6,1.14-.92,1.73-.64,1.18-1,1.78-.62,1.23-.94,1.86c-.64,1.25-1.3,2.54-1.9,3.89-.31.68-.63,1.35-1,2s-.61,1.39-.93,2.09-.62,1.41-.93,2.13-.6,1.44-.91,2.17l-.9,2.21-.88,2.25c-1.17,3-2.27,6.1-3.31,9.21-.54,1.55-1,3.12-1.53,4.67s-1,3.12-1.41,4.68c-.9,3.11-1.77,6.17-2.53,9.17s-1.5,5.88-2.14,8.65l-.9,4c-.3,1.3-.58,2.56-.83,3.78l-1.34,6.64c-.38,2-.7,3.72-1,5.15s-.45,2.56-.59,3.33Z"/><path class="cls-8" d="M79.32,290.27s.05-1.38.36-3.78c.17-1.19.36-2.65.67-4.3.15-.82.32-1.7.5-2.63s.42-1.89.64-2.9c.44-2,1.07-4.17,1.7-6.46.32-1.15.71-2.3,1.08-3.49s.77-2.4,1.22-3.61c.89-2.44,1.8-5,2.9-7.45.54-1.25,1-2.52,1.62-3.77l1.8-3.74c1.17-2.5,2.54-4.91,3.85-7.3l1-1.77c.35-.58.71-1.15,1.06-1.71l2.1-3.35,1-1.62c.35-.53.73-1,1.09-1.55l2.13-3c.71-1,1.36-1.91,2.06-2.77l2.06-2.5c1.34-1.57,2.52-3.06,3.68-4.27s2.2-2.26,3-3.12,1.53-1.51,2-2l.72-.68s-.19.29-.53.84-.85,1.35-1.52,2.34-1.46,2.22-2.4,3.58c-.49.68-.93,1.45-1.43,2.24s-1,1.61-1.56,2.48l-1.71,2.67c-.59.93-1.14,1.92-1.74,2.93s-1.21,2-1.83,3.07l-1,1.59c-.3.55-.61,1.1-.91,1.66-.62,1.1-1.25,2.23-1.88,3.37l-1,1.72c-.31.58-.61,1.17-.92,1.76-1.2,2.38-2.53,4.73-3.65,7.19-.6,1.22-1.19,2.43-1.79,3.64l-1.67,3.65c-.28.61-.56,1.21-.83,1.81s-.56,1.19-.81,1.8c-.51,1.2-1,2.38-1.53,3.55s-1,2.32-1.43,3.45-.92,2.24-1.36,3.32c-.82,2.18-1.68,4.22-2.36,6.14-.36,1-.7,1.88-1,2.75l-.89,2.49c-.56,1.56-1,2.94-1.42,4.07s-.67,2-.87,2.65Z"/><path class="cls-5" d="M314.34,245.3a85.17,85.17,0,0,1-74.07-12.65,321.78,321.78,0,0,0,114.23,73.8c8.76,3.3,17.91,6.25,27.26,5.9,10.48-.4,20.31-4.88,29.83-9.28,14.62-6.77,29.35-13.6,42.32-23.16s24.2-22.17,29.41-37.42c-17.59,21-50.61,27-74.48,13.62-13.72-7.7-24.71-21-40.1-24.22C350.2,228,332.46,239.78,314.34,245.3Z"/><path class="cls-1" d="M359.56,31.86s-7.22-5.42-23,2c0,0,16.31-12.82,22.57-10.27S364.26,29.6,359.56,31.86Z"/><path class="cls-8" d="M395.4,646.23a108.06,108.06,0,0,1,3.14-93.53c3.65-6.86,8.32-13.57,15.13-17.32s16.2-3.72,21.65,1.83c7,7.16,4.38,19.63-2,27.35S417.75,577.15,410.44,584C397.74,595.9,393.25,629,395.4,646.23Z"/><path class="cls-8" d="M360.37,652.6c-16.24-26-47.05-42.22-77.69-40.87S199,638.25,208.91,659.3c6.92,10.67,23.05,10.86,34.42,5.18s20.06-15.56,30.73-22.47C300.48,624.91,338.87,629.62,360.37,652.6Z"/><path class="cls-8" d="M349.28,620.11c-41.8-36.34-60.47-7.39-85.45-25.15-8-8.4-9.58-16.67-1.28-24.78s21.34-9.95,32.51-6.85,20.71,10.47,28.79,18.8A127.84,127.84,0,0,1,349.28,620.11Z"/><path class="cls-8" d="M288.86,676.85c.66,4.21,5.82,6.65,9.89,5.41s6.87-5.17,7.95-9.29.75-8.46.44-12.71-.55-8.61.67-12.69a21.55,21.55,0,0,0-18.95,29.28Z"/><path class="cls-8" d="M357.12,538a25,25,0,0,1,3.16-12.69,14.79,14.79,0,0,1,10.5-7.29c4.38-.53,9.15,1.76,10.9,5.81s.34,8.64-1.88,12.35-5.26,6.9-7.3,10.71a24.22,24.22,0,0,0-.28,21.89A38.94,38.94,0,0,1,357.12,538Z"/></g></g></svg>